<svg xmlns="http://www.w3.org/2000/svg" width="475" height="475"><path fill="#4A4BBD" d="M222.563 101.313c1.824 1.306 3.33 2.566 4.824 4.242 2.122 1.901 4.147 2.427 6.863 3.257 9.204 3.283 13.07 7.693 17.392 16.507C255.04 132.787 257 140.775 257 149l2.91-.14c4.711.004 9.005 1.162 13.527 2.39l2.448.621c4.009 1.066 7.56 2.272 11.205 4.266 4.046 2.138 7.514 2.421 12.035 2.425 5.298.036 9.29.547 13.875 3.438 2.647 3.97 2.037 7.16 1.773 11.727-.064 1.772-.125 3.544-.183 5.316a319.967 319.967 0 0 1-.385 8.353c-.993 10.021-.993 10.021 1.913 19.293 3.15 3.225 6.952 5.198 10.882 7.311a167.665 167.665 0 0 1 5.688 4.563l2.718 2.246c3.208 2.71 6.355 5.48 9.473 8.293 2.052 1.837 4.146 3.616 6.246 5.398 3.376 2.936 6.221 6.135 9.105 9.547 1.751 1.932 3.574 3.544 5.582 5.203 4.897 4.172 8.856 9.082 12.858 14.088a815.695 815.695 0 0 0 4.06 5.021C403.635 294.282 418.326 320.75 416 355c-1.794 12.824-8.846 22.08-18.828 29.828-13.577 9.297-32.262 8.867-47.922 6.371-15.388-2.912-31.936-7.548-45.715-15.097-2.393-1.365-2.393-1.365-4.41-.536L297 377c-1.221.629-2.452 1.24-3.688 1.84l-2.1 1.029c-10.088 4.872-19.928 8.35-31.212 9.131l-2.828.371c-11.297.87-20.207-3.612-30.316-8.138-3.034-1.31-6.097-2.497-9.188-3.667a298.103 298.103 0 0 1-13.207-5.37c-25.116-10.912-50.937-20.072-77.062-28.272-4.226-1.628-6.865-3.124-9.399-6.924-2.95-9.531 4.011-19.648 8-28l-2.691.16c-7.16-.346-13.839-5.819-18.602-10.96-20.265-26.109-27.537-64.064-23.81-96.3 1.8-13.164 5.592-24.843 13.103-35.9l1.535-2.3c9.922-14.05 25.048-20.625 41.465-23.7 12.82-2.102 25.242-.73 38 1l.629-2.133c4.572-14.653 10.866-28.361 23.656-37.5 7.15-3.711 16.293-4.292 23.278-.055ZM197 114c-5.11 5.612-7.974 11.878-10.5 18.938l-.81 2.26c-1.522 4.357-1.522 4.357-.69 8.802l10 2 .664-2.238c3.714-11.882 8.994-24.736 20.274-31.262L219 111c-1.604-1.941-2.835-2.934-5.188-3.875-6.19-.275-12.158 3.013-16.812 6.875Zm18.266 8.555c-6.841 7.052-10.999 16.75-12.266 26.445 10.39 3.767 19.065 6.645 30 3 .755-8.1-.5-15.269-2.375-23.125l-.67-2.839c-1.073-4.996-1.073-4.996-3.955-9.036-4.678 0-7.391 2.558-10.734 5.555ZM237 120l.38 1.796c1.326 6.417 2.352 12.84 3.245 19.329l.406 2.898c.326 2.326.649 4.651.969 6.977l6-1c.396-10.689-1.432-19.31-8-28l-3-2Zm-106.285 83.035c-1.852 1.91-3.385 3.661-4.715 5.965.067 3.05.067 3.05 2 6 .879 1.79 1.754 3.582 2.625 5.375L133 225l11-1c.791-3.957 1.118-6.995 1.098-10.957l-.01-3.37-.025-3.486-.014-3.544c-.012-2.881-.028-5.762-.049-8.643-5.157 0-10.607 5.76-14.285 9.035ZM315 266c1.416 15.707 3.366 31.257 5.938 46.813.12.747.242 1.494.367 2.264C323.63 331.492 323.63 331.492 329 347c10.392 3.282 22.675 3.163 32.5-1.75 3.36-3.023 5.324-5.573 5.629-10.215-.894-14.974-10.931-28.027-20.797-38.484a59.846 59.846 0 0 1-5.207-6.551c-3.4-4.71-7.763-8.392-12.074-12.234-3.608-3.228-6.964-6.686-10.309-10.184-1.597-1.806-1.597-1.806-3.742-1.582Z"/><path fill="#53A165" d="M314 206c4.277 1.61 7.617 3.747 11.188 6.563l1.725 1.343c4.403 3.465 8.57 7.147 12.689 10.946 2.413 2.161 4.904 4.158 7.46 6.148 5.042 3.971 9.481 8.394 13.938 13l2.39 2.375c6.738 6.778 13.525 13.709 19.075 21.508 1.584 2.185 3.263 4.28 4.95 6.387C406.36 298.165 418.099 324.086 416 355c-1.794 12.824-8.846 22.08-18.828 29.828-13.577 9.297-32.262 8.867-47.922 6.371-15.456-2.925-31.882-7.643-45.832-15.02L301 375c-2.167.667-2.167.667-4 2a68.913 68.913 0 0 1-4 1l2-1.875c2.228-1.881 2.228-1.881 2-4.125l-3.184-1.723c-7.103-3.891-13.913-7.699-20.117-12.964-1.777-1.522-1.777-1.522-4.699-2.313a128.937 128.937 0 0 1-3.383-3.379c-1.942-1.947-3.99-3.742-6.055-5.558-4.517-4.047-8.877-8.234-13.187-12.5l-1.904-1.865-1.76-1.757-1.585-1.572C240 327 240 327 240 325h-2c-1.41-1.914-1.41-1.914-3.063-4.625a755.018 755.018 0 0 0-9.916-15.602c-5.768-8.922-5.768-8.922-5.021-14.773 2.164-2.497 3.63-2.936 6.875-3.5 4.216.674 6.076 2.587 9.125 5.5l1.875 1.688C239 295 239 295 239 297l2.125.66c3.572 1.665 6.086 4.063 8.875 6.777 3.46 3.342 6.814 6.159 11 8.563 3.02 2.243 5.99 4.541 8.965 6.844 2.95 2.22 2.95 2.22 6.164 3.687 2.953 1.51 4.557 3.137 6.871 5.469a114.53 114.53 0 0 0 6.188 3.438c3.942 2.057 7.843 4.138 11.687 6.375 3.63 2.021 7.08 3.159 11.125 4.187 1.96.706 3.917 1.415 5.875 2.125 4.595 1.557 8.352 2.2 13.176 1.95 2.72-.104 5.271.47 7.949.925 8.662.44 18.276.034 25-6 2.437-3.708 2.21-7.173 1.598-11.418-3.1-13.387-11.001-24.21-20.258-34.023a64.025 64.025 0 0 1-5.34-6.684c-2.951-4.078-6.542-7.2-10.328-10.492-3.713-3.311-7.168-6.854-10.64-10.414-1.878-2.018-1.878-2.018-4.032-2.969-.993-3.554-1.122-6.942-1.114-10.616v-3.336l.016-3.568.005-3.677c.005-3.872.018-7.744.03-11.615.006-2.627.01-5.254.014-7.881.011-6.436.028-12.871.049-19.307Z"/><path fill="#7D63D4" d="M222.563 101.313c1.824 1.306 3.33 2.566 4.824 4.242 2.122 1.901 4.147 2.427 6.863 3.257 9.204 3.283 13.07 7.693 17.392 16.507C255.04 132.787 257 140.775 257 149l2.91-.14c4.711.004 9.005 1.162 13.527 2.39l2.448.621c4.009 1.066 7.56 2.272 11.205 4.266 4.046 2.138 7.514 2.421 12.035 2.425 5.298.036 9.29.547 13.875 3.438 2.587 3.88 2.23 7.042 2.148 11.534l-.024 2.65c-.017 1.906-.04 3.813-.065 5.72-.04 3.06-.064 6.12-.084 9.182-.058 8.707-.132 17.414-.242 26.121-.334 27.307.573 53.7 4.929 80.685.352 2.198.694 4.398 1.032 6.599 2.922 19.182 2.922 19.182 7.607 37.99C329 345 329 345 329 348c-5.766-.427-10.258-1.763-15.563-4.035-2.174-.86-4.151-1.393-6.437-1.84-4.337-.984-7.692-3.187-11.418-5.55-2.532-1.544-5.086-2.817-7.77-4.075-3.954-1.922-6.955-4.143-10.18-7.105-1.803-1.63-1.803-1.63-4.945-3.27l-1.727-1.004a72.362 72.362 0 0 0-4.477-2.336c-3.742-2.248-6.823-4.403-8.04-8.795-.887-6.34-.542-12.738-.318-19.115.04-2.113.076-4.227.11-6.34.642-30.888 3.121-61.86 6.765-92.535l-1.752-.574c-5.328-1.749-10.602-3.624-15.865-5.559A208.84 208.84 0 0 0 242 184c1.152-2.468 2.048-4.048 4-6 .358-2.564.358-2.564.313-5.438l.05-2.933c-.428-3.098-1.225-3.513-3.363-5.629-.293-2.48-.293-2.48-.188-5.188l.083-2.73L243 154h-2c.087 1.772.195 3.542.313 5.313l.175 2.988c.573 3.02 1.266 3.732 3.512 5.699 1.076 3.536 1.32 5.278-.188 8.688-3.19 4.07-3.19 4.07-5.812 5.312-3.116.14-6.048.043-9-1-2.522-3.665-2.694-7.693-2-12 3-5.5 3-5.5 6-7 .407-2.322.744-4.657 1-7l-2.263.475c-3.37.703-6.74 1.395-10.112 2.088l-3.563.748-3.398.693-3.142.65C210 160 210 160 208 159l10-4-5-2c3.3-1.1 5.366-.685 8.74-.19 2.436.205 4.611.026 7.033-.279l2.412-.295L233 152c-.993-11.401-2.668-22.033-6-33-1.858-.65-1.858-.65-4-1-11.977 6.25-16.074 18.833-20 31h-2l-1 11h7v1l-13 3c.606-19.016 2.373-34.103 16.102-48.293 2.497-2.246 4.987-4.033 7.898-5.707-5.163-2.044-7.89-2.175-13.008-.02-11.863 6.072-15.303 16.649-19.414 28.63a59.977 59.977 0 0 1-3.219 7.656c-2.287 4.602-2.507 9.04-2.675 14.129l-.127 3.642-.12 3.775-.13 3.834c-.106 3.118-.208 6.236-.307 9.354l1.938.938C183 183 183 183 184 184c.467 5.366.467 5.366-1.23 7.672-2.242 1.682-3.553 1.73-6.333 1.703l-2.378.023L172 193c-2.313-3.47-2.425-4.922-2-9 1.375-1.875 1.375-1.875 3-3h2c-.01-.674-.02-1.347-.032-2.041-.177-13.177-.077-25.935 2.032-38.959l.492-3.66c2.032-13.365 9.69-24.3 19.508-33.34 7.327-5.215 17.726-6.442 25.563-1.688ZM237 120l.38 1.796c1.326 6.417 2.352 12.84 3.245 19.329l.406 2.898c.326 2.326.649 4.651.969 6.977l6-1c.396-10.689-1.432-19.31-8-28l-3-2Z"/><path fill="#254699" d="m168 229 2 1-1.207 1.469c-6.054 7.659-8.034 13.554-8.106 23.156l-.017 2.209c.081 6.03 1.581 10.95 4.268 16.353l.964 1.981c1.041 1.91 1.041 1.91 2.727 3.445C170 280 170 280 170 282l1.77.84c2.12 1.103 3.965 2.351 5.917 3.723 4.32 2.765 8.253 3.308 13.313 3.437l1-2 3 1 1 13h2l1 4h4l1.574-3.219c9.57-19.456 9.57-19.456 14.051-22.656 8.049-2.683 15.927-3.455 24.375-3.125l-1 4-19 4 9 1c2.652 1.959 4.644 3.658 6.875 6a1005.04 1005.04 0 0 0 3.598 3.555l1.781 1.772c3.363 3.222 7.053 6.02 10.734 8.868C257 308 257 308 258 311c-3.618-1.546-6.082-3.758-8.938-6.438-2.56-2.4-4.85-4.437-7.878-6.222L239 297v-2l-3-1a141.4 141.4 0 0 1-5-5c-1.104-1.324-1.104-1.324-3.875-1.188-3.29-.065-3.29-.065-6.125 2.188-1.212 10.294 7.727 19.736 13.392 27.693C238 322.797 238 322.797 238 325h2c1.234 1.258 1.234 1.258 2.75 3.125 7.863 9.232 16.405 17.787 26.25 24.875v2l2.063.125c2.981.888 3.863 1.546 6.062 3.594 3.958 3.488 8.237 6.06 12.813 8.656l2.36 1.363c1.897 1.094 3.8 2.179 5.702 3.262-3.5 7.482-10.623 10.165-18 13-6.537 2-13.17 3.528-20 4l-2.828.371c-11.297.87-20.207-3.612-30.316-8.138-3.034-1.31-6.097-2.497-9.188-3.667a298.103 298.103 0 0 1-13.207-5.37c-25.116-10.912-50.937-20.072-77.062-28.272-4.226-1.628-6.865-3.124-9.399-6.924-1.772-5.725-.145-9.68 2-15l1.223-3.363c3.57-8.942 3.57-8.942 6.886-10.852a87.7 87.7 0 0 1 4.586-1.078c6.013-1.845 10.06-7.934 13.118-13.144 2.245-4.355 3.821-8.866 5.187-13.563 2.72 2.602 4.92 5.226 7.063 8.313 4.12 5.364 9.05 8.48 14.937 11.687l2.355 1.285c5.452 2.692 10.601 3.463 16.645 3.715v-4l-16-5-1-6-1.688-.25c-4.54-1.472-7.794-4.774-10.312-8.75v-2h-2c-4.011-7.475-5.346-14.075-5.313-22.438l-.048-2.447c-.007-8.53 2.08-14.387 8.048-20.615l2.45-2.594L168 229Z"/><path fill="#81A661" d="M178 133h1c-.427 3.484-.912 6.727-1.988 10.074-1.67 5.673-1.683 11.664-1.96 17.54-.493 6.876-.493 6.876-3.298 9.437-2.663.917-5.262 1.741-8.004 2.387-9.649 2.301-9.649 2.301-16.75 8.562-.172 2.83-.232 5.559-.195 8.387l.008 2.476c.011 2.608.037 5.216.062 7.825.01 1.768.02 3.537.027 5.306.022 4.336.057 8.67.098 13.006h2c-1.634 13.344-1.634 13.344-3.688 19.438-1.381 4.235-1.21 7.15-.312 11.562l-.125 3.625c-.091 7.832 2.193 15.595 5.5 22.625 1.503 3.566 1.837 5.595.688 9.313A86.861 86.861 0 0 1 149 289l-1.012 2.246c-3.35 6.783-8.578 13.587-15.476 16.977-5.194 1.607-10.065 1.8-15.137-.32-19.072-10.903-26.718-33.3-32.75-53.34-6.925-26.297-7.986-58.764 5.813-83.125A199.19 199.19 0 0 1 94 166l1.535-2.3c9.922-14.05 25.048-20.625 41.465-23.7 12.82-2.102 25.242-.73 38 1l3-8Zm-47.285 70.035c-1.852 1.91-3.385 3.661-4.715 5.965.067 3.05.067 3.05 2 6 .879 1.79 1.754 3.582 2.625 5.375L133 225l11-1c.791-3.957 1.118-6.995 1.098-10.957l-.01-3.37-.025-3.486-.014-3.544c-.012-2.881-.028-5.762-.049-8.643-5.157 0-10.607 5.76-14.285 9.035Z"/><path fill="#B6B154" d="M230 287c3.188 2.313 3.188 2.313 6 5l1.875 1.688C239 295 239 295 239 297l2.125.66c3.572 1.665 6.086 4.063 8.875 6.777 3.46 3.342 6.814 6.159 11 8.563 3.02 2.243 5.99 4.541 8.965 6.844 2.95 2.22 2.95 2.22 6.164 3.687 2.947 1.508 4.573 3.13 6.871 5.469a89.961 89.961 0 0 0 5.5 3.063c4.205 2.188 8.367 4.414 12.484 6.765l2.635 1.492a583.75 583.75 0 0 1 5.137 2.948c4.704 2.646 8.884 4.33 14.19 5.313 2.94.6 5.564 1.717 8.304 2.919l2.953 1.281c1.706.743 3.406 1.498 5.098 2.274 15.727 5.508 33.188 5.596 48.699-.055 1.999-.67 3.998-1.339 6-2v-2a921.54 921.54 0 0 1 4.473-3.66c5.339-4.684 6.185-11.532 6.789-18.25.445-12.39-2.755-24.08-8.407-35.05L396 292l1-2c3.877 3.41 6.067 7.243 8.438 11.75l1.189 2.253c8.895 17.413 13.223 39.134 7.748 58.31-4.327 11.489-12.289 20.748-23.422 26.171-27.429 10.23-58.221.12-83.953-10.484a135.32 135.32 0 0 1-3.582-1.82L301 375c-2.167.667-2.167.667-4 2a68.913 68.913 0 0 1-4 1l2-1.875c2.228-1.881 2.228-1.881 2-4.125l-3.184-1.723c-7.103-3.891-13.913-7.699-20.117-12.964-1.777-1.522-1.777-1.522-4.699-2.313a128.937 128.937 0 0 1-3.383-3.379c-1.942-1.947-3.99-3.742-6.055-5.558-4.517-4.047-8.877-8.234-13.187-12.5l-1.904-1.865-1.76-1.757-1.585-1.572C240 327 240 327 240 325h-2c-1.41-1.914-1.41-1.914-3.063-4.625a755.018 755.018 0 0 0-9.916-15.602c-5.768-8.922-5.768-8.922-5.021-14.773 2.907-3.354 5.724-3.684 10-3Z"/><path fill="#4E68AD" d="M151 293c5.287 1.252 9.035 3.938 13.352 7.082a140.095 140.095 0 0 0 5.234 3.617c12.372 8.166 22.24 20.95 26.414 35.301v4h2a14168.336 14168.336 0 0 1 2.203 9.516c.66 2.887 1.298 5.777 1.922 8.671.667 3.593.667 3.593 1.875 5.813 2.192.85 4.418 1.468 6.676 2.121 2.52.953 4.19 2.252 6.324 3.879a71.808 71.808 0 0 0 4.563 1.875 179.34 179.34 0 0 1 11.062 4.688C242.873 384.44 242.873 384.44 254 385c3.053-2.83 3.932-4.544 4.546-8.689.04-1.412.061-2.824.063-4.237l.05-2.265c.049-2.374.07-4.747.091-7.122.028-1.615.058-3.23.09-4.845.074-3.947.123-7.894.16-11.842 8.102 5.394 8.102 5.394 10 7v2l2.063.125c2.981.888 3.863 1.546 6.062 3.594 3.958 3.488 8.237 6.06 12.813 8.656l2.36 1.363c1.897 1.094 3.8 2.179 5.702 3.262-3.5 7.482-10.623 10.165-18 13-6.537 2-13.17 3.528-20 4l-2.828.371c-11.297.87-20.207-3.612-30.316-8.138-3.034-1.31-6.097-2.497-9.188-3.667a298.103 298.103 0 0 1-13.207-5.37c-25.116-10.912-50.937-20.072-77.062-28.272-4.226-1.628-6.865-3.124-9.399-6.924-2.95-9.531 4.011-19.648 8-28h3v6c10.231-5.435 16.254-12.044 22-22Z"/><path fill="#7767DA" d="M176 142h1l-2 39-4 1-.063 3.875-.035 2.18c-.028 2.027-.028 2.027 1.098 3.945 1.458.054 2.916.093 4.375.125l2.46.07c2.378.019 2.378.019 4.165-2.195.5-2.958.5-2.958 0-6l-1.992-1.326C179 181 179 181 178.498 178.34l.006-3.188-.002-3.525.06-3.69-.021-3.607c.05-6.9.203-14.072 3.459-20.33 3.552-1.184 4.698-.695 8.188.438l2.73.87L195 146l1-3c.114 6.766-.12 13.288-1 20l7-2-2-1 1-11c6.96.387 11.94 2.634 18 6v1l-9 3 4.2-.875 5.488-1.125 2.763-.578 2.686-.547 2.46-.508c2.504-.382 4.874-.43 7.403-.367.313 3.188.313 3.188 0 7-2.438 2.813-2.438 2.813-5 5-1.572 3.143-1.232 6.558-1 10l1 3c-8.299-.85-8.299-.85-11.625-1.563-4.883-.899-8.219-1.124-12.586 1.47a123.03 123.03 0 0 0-3.164 2.593l-1.689 1.367A304.908 304.908 0 0 0 196 188l-2.77 2.34c-3.189 2.767-5.878 5.133-8.23 8.66 3.64 1.116 7.147 1.173 10.938 1.313 16.93.934 31.676 8.098 43.062 20.687 7.079 10.024 11.114 20.17 11.188 32.5l.042 3.281c-.24 3.371-1.03 6.072-2.23 9.219h-5l-.028-1.83c-.301-21.773-.301-21.773-10.972-40.17l-1.672-1.797c-8.897-8.593-21.449-14.13-33.766-14.453-12.852.301-22.89 4.882-32.234 13.727-9.428 10.219-13.164 20.742-12.676 34.457.797 12.123 6.162 24.274 14.723 32.879 6.365 5.405 13.817 7.63 21.625 10.187 1.673.651 3.343 1.31 5 2l-1 5c-11.147 0-23.465-5.52-31.555-13.313-11.045-12.896-16.995-27.22-16.418-44.277.094-2.355.094-2.355-.636-4.277-.615-3.357.485-6.073 1.422-9.32 1.574-5.577 2.993-11.142 4.187-16.813l-3 1c-.1-5.32-.172-10.64-.22-15.96-.02-1.81-.047-3.619-.082-5.427a655.438 655.438 0 0 1-.089-7.812l-.062-2.44c-.002-3.934.165-5.895 2.281-9.319 2.768-2.602 5.253-3.5 8.86-4.667l3.511-1.164L164 171a3162.28 3162.28 0 0 0 9-3l.168-1.848c.254-2.78.511-5.56.77-8.34l.263-2.908.264-2.822.238-2.587c.302-2.535.763-4.999 1.297-7.495Z"/><path fill="#474EB6" d="m216 225 1.945 1.352c7.242 5.61 12.174 13.702 14.055 22.648.305 2.814.25 5.15 0 8l-2 2c-2.125-.375-2.125-.375-4-1l-.332-1.688c-2-9.625-4.441-18.515-12.793-24.5-9.258-5.792-18.24-6.939-28.875-4.812l-1 4 2-1c9.465-.774 18.13-1.059 26 5 4.75 4.564 9.126 9.3 10 16 .025 1.56.032 3.12.023 4.68l-.01 2.452L221 260l1.88.794c2.812 1.19 5.622 2.386 8.433 3.581l2.958 1.25c.938.4 1.876.8 2.842 1.21.864.368 1.728.734 2.619 1.112C242 269 242 269 245 271c-.313 1.875-.313 1.875-1 4-2.895 1.93-3.953 2.32-7.238 2.746l-2.487.35c-1.713.226-3.426.45-5.14.672-4.877.69-8.946 1.458-13.135 4.232-1.738 2.218-1.738 2.218-2.938 4.875l-1.472 2.918L210 294c-1.274 2.405-2.575 4.796-3.875 7.188L203 307l-5-1v-4h-2c-1.644-3.289-1.399-6.933-1.621-10.566L194 289l-2-1-1 3c-8.39-.214-13.527-2.85-19.688-8.438-10.023-11.106-12.137-19.914-11.482-34.54.735-8.725 5.833-15.326 12.17-21.022 11.993-8.934 31.393-10.991 44-2Z"/><path fill="#2E47A2" d="M294 163h15c2.016 4.031 2.247 5.647 2.188 10l-.02 3.125C311 179 311 179 310.498 180.847c-.589 2.545-.633 4.859-.643 7.471l-.02 3.237-.003 3.504-.013 3.647c-.01 3.91-.01 7.82-.007 11.732l.001 2.01c.01 19.256.052 38.393 2.187 57.552l.439 3.953c1.06 9.367 2.273 18.709 3.561 28.047l.41 3.043c1.215 8.893 2.804 17.33 5.672 25.867 1.563 5.261 2.242 10.654 2.918 16.09-5.222-.533-9.216-1.902-14-4l-3.875-.875c-4.863-1.19-9.24-2.9-13.125-6.125-1.48-3.03-1.705-5.952-1.938-9.29l-.29-2.724c-.297-2.868-.535-5.737-.772-8.611a1429.14 1429.14 0 0 0-.574-5.723c-.44-4.378-.841-8.758-1.205-13.143a232.285 232.285 0 0 0-.489-4.954c-.934-8.812-.934-17.626-.97-26.477l-.013-2.593c-.02-4.549-.035-9.098-.044-13.646-.009-3.69-.03-7.38-.062-11.07-.433-51.003-.433-51.003 6.357-74.769Z"/><path fill="#484ABD" d="M269 154c5.437.559 9.918 1.94 14.938 4.063l2.072.853c1.666.688 3.329 1.385 4.99 2.084.154 6.813-.44 13.258-1.375 20-4.565 35.396-4.453 70.42-2.25 106l.191 3.1c.678 10.776 1.495 21.513 2.805 32.232.434 3.58.73 7.061.629 10.668-5.534-.503-9.72-3.661-13.516-7.555-1.61-1.693-1.61-1.693-4.609-3.195l-1.838-1.078c-2.057-1.218-2.057-1.218-4.371-2.286-2.91-1.7-4.662-3.155-6.666-5.886-1.198-6.064-.745-11.985-.375-18.125.08-1.876.16-3.753.235-5.63 1.58-35.298 4.642-70.717 8.971-105.786.808-6.792 1.32-13.478 1.337-20.314l.006-2.08c.002-3.656.002-3.656-1.174-7.065Z"/><path fill="#D6A651" d="M230 287c3.188 2.313 3.188 2.313 6 5l1.875 1.688C239 295 239 295 239 297l2.375.625C244 299 244 299 245.063 302l.937 3c1.85 1.258 1.85 1.258 4 2 2.25 1.5 2.25 1.5 4 3v2h3v3l1.688.813c4.688 2.407 8.864 5.233 13 8.5l2.886 2.238c2.708 2.734 3.382 4.803 4.426 8.449l2 1v2l1.586.293c3.242.95 6.04 2.467 9.039 4.02 7.758 3.945 15.34 7.578 23.977 9.097 2.398.59 2.398.59 5.976 1.985 5.062 1.943 10.259 3.074 15.547 4.23l2.918.656c7.583 1.69 15.117 2.899 22.832 3.781l2.375.276c1.917.222 3.833.442 5.75.662l1 3c-9.974 2.826-19.789 1.752-30 1l-1 3 3 1 1 2h3v2l3.113.184c7.977.479 15.934 1.024 23.887 1.816l-1 3c-13.602 1.94-26.372-.105-39.507-3.67-5.015-1.324-9.339-1.698-14.493-1.33v2c-8.273-1.478-15.884-4.572-23-9v-2l-5-1v-2l-2.023-.64c-3.998-1.826-7.158-4.407-10.602-7.11-5.54-4.278-10.975-7.97-17.336-10.969C260 343 260 343 258.961 340.906L258 339a89.677 89.677 0 0 0-4-1c-1.633-1.594-1.633-1.594-3.125-3.5-2.074-2.688-2.074-2.688-4.875-4.5v-2l-3-1v-2l-3-1-4-6-3-1a122.354 122.354 0 0 1-5-7.188l-1.328-2.001C219.04 296.168 219.04 296.168 220 290c2.907-3.354 5.724-3.684 10-3Z"/><path fill="#84D457" d="M112 161c-.348 5.215-1.06 9.298-3.063 14.125-4.252 11.942-2.506 26.491-.937 38.875h2l1 6c2.468-1.152 4.048-2.048 6-4l1 6h2l.734 1.688A296.35 296.35 0 0 0 128 239h10c1.914 4.905 2.374 9.25 2.563 14.438.175 4.189.394 8.267 1 12.421.89 6.39-2.582 11.636-5.86 16.926-2.64 3.434-4.498 4.182-8.703 5.215-4.29.363-7.327.35-11-2 .432-3.53.937-6.802 2.02-10.195 1.114-4.325 1.324-8.177 1.293-12.618l-.011-2.396c-.142-7.675-1.075-14.838-6.302-20.791-4.016-1.135-6.988-.976-11 0h-3c-1.671.31-3.339.64-5 1-7.786-18.921-12.435-35.213-6-55 1.512-3.445 1.512-3.445 3-6a93.365 93.365 0 0 1 4-1c1.073-2.262 1.073-2.262 2-5 3.109-5.077 8.09-13 15-13Z"/><path fill="#BBB653" d="m86 186 2 1-.402 1.688c-3.702 15.995-1.904 32.722 5.558 47.62C94 238 94 238 94 241l2.188-.938c2.629-.993 5.031-1.676 7.812-2.062l1 1 2-2h4l2 2 2 1c1.035 2.398 1.035 2.398 2.063 5.375l1.035 2.96c4.23 12.493 2.293 25.47-2.098 37.665 9.42 1.487 9.42 1.487 18-2 3.566-4.666 6.1-9.16 7-15 2.762 2.762 2.579 5.207 3 9h2c2.503 4.006 3.604 7.112 2.762 11.86-2.634 7.4-9.55 13.602-15.762 18.14-5.343 1.781-10.504 2.093-15.738-.2-4.237-2.491-8.034-5.051-11.262-8.8l-.5-3.625L105 292l-1.89-.93c-2.76-1.4-3.204-2.744-4.36-5.57l-1.016-2.406C97 281 97 281 97 279h-2l-.805-2.668-1.07-3.52-1.055-3.48c-.998-3.263-.998-3.263-2.203-6.07C89 261 89 261 89 258h-2c-.649-3.02-1.294-6.041-1.938-9.063l-.552-2.568c-2.037-9.59-2.72-18.687-2.76-28.494l-.063-3.766C81.653 205.662 82.764 198.135 85 190a738.12 738.12 0 0 0 1-4Z"/><path fill="#4D4EBC" d="M227.664 219.105c8.844 7.58 14.584 15.882 15.576 27.767.053 2.923.024 5.83-.053 8.753l-.04 3.043A649.273 649.273 0 0 1 243 266l5-1 2-18h1c1.73 7.61 1.055 15.673-3.082 22.371L246 272a2243.66 2243.66 0 0 1-11.313-4.813l-3.248-1.369-3.115-1.338-2.872-1.221c-2.376-1.22-3.868-2.118-5.452-4.259-.033-1.985-.058-3.972.004-5.957-.012-6.473-3.848-11.423-8.004-16.043-6.251-4.848-11.287-6.31-19.125-6.125l-2.168.027A905.12 905.12 0 0 0 185 231h-3c.625-1.875.625-1.875 2-4 7.29-3.471 14.306-2.327 21.68.086 3.145 1.239 5.648 2.85 8.32 4.914l3.125 2.25c6.538 6.254 8.82 14.966 9.875 23.75l4-1c.79-10.468-2.98-18.84-9.707-26.766-7.72-7.523-15.31-9.46-25.746-9.41-9.079.125-15.088 1.346-22.555 6.746C171 229 171 229 168.375 230.313A29.026 29.026 0 0 0 157 247c-.295 3.13-.325 6.232-.313 9.375l-.048 2.46c-.005 5.74 1.12 9.888 3.361 15.165.38 1.657.738 3.32 1 5h2l3.496 5.195c1.626 1.951 2.996 2.808 5.254 3.93C175 290 175 290 175.938 292.75L176 295c-10.39-3.654-15.823-11.614-20.488-21.063-5.155-11.067-6.846-24.055-2.95-35.812 6.047-14.179 16.094-23.332 30.11-29.254 15.75-5.893 32.453.324 44.992 10.234Z"/><path fill="#134488" d="M223 304c3.505 1.168 3.935 1.967 5.918 4.965l1.611 2.424 1.659 2.548 1.693 2.538C238 322.726 238 322.726 238 325h2c1.678 1.708 3.134 3.567 4.649 5.421 2.337 2.686 2.337 2.686 5.341 5.04 5.541 4.586 9.556 8.488 10.28 15.899.106 3.068.067 6.103-.09 9.17-.119 2.365-.144 4.719-.155 7.087a637.075 637.075 0 0 1-.115 4.563l-.036 2.112c-.32 5.533-1.986 8.008-5.874 11.708-9.163 1.386-19.6-2.642-27-8-3.531-4.175-5.32-9.183-7.237-14.24-1.04-2.4-2.486-4.17-4.263-6.072C213 355 213 355 213 352c4.766-2.566 8.666-4.472 14-3 2.967-1.837 2.967-1.837 5-4v2h2l1-3 3-1-1.25-2.324c-3.87-7.437-7.183-14.972-10.188-22.801l-1.072-2.764-.986-2.619-.88-2.332C223 308 223 308 223 304Z"/><path fill="#DAAE5F" d="m152 140.688 3.695-.01c6.745.04 12.79.56 19.305 2.322.065 4.002.053 7.998 0 12-.015 1.183-.03 2.367-.047 3.586l-.14 3.476-.106 3.223C174 168 174 168 171.777 169.781c-2.682 1.177-5.18 1.986-8.027 2.656-9.649 2.302-9.649 2.302-16.75 8.563-.172 2.83-.232 5.559-.195 8.387l.008 2.476c.011 2.608.037 5.216.062 7.825.01 1.768.02 3.537.027 5.306.022 4.336.057 8.67.098 13.006h2c-.866 8.116-1.766 14.944-6 22-4.202-3.718-6.998-8.317-10-13 2.9-1.659 4.916-2.236 8.25-2.125L145 225l-.487-2.484c-.574-3.937-.693-7.798-.716-11.766l-.017-2.353c-.01-1.633-.016-3.267-.02-4.9-.01-2.49-.041-4.977-.072-7.466-.007-1.593-.012-3.187-.016-4.781l-.038-2.235c.031-7.238 2.779-11.637 7.366-17.015l-9-2v-2c-9.018-1.145-17.928-1.095-27-1 1.387-8.942 4.693-16.031 11.989-21.652 7.6-5.093 16.18-4.777 25.011-4.66Z"/><path fill="#40896C" d="m385 285 .785 1.594a260.34 260.34 0 0 0 2.836 5.437c6.066 11.584 10.774 23.564 7.723 36.82-3.103 9.71-8.749 16-17.633 20.895-12.955 5.992-30.035 6.148-43.711 2.254l-2-2 1.709-.044c2.598-.075 5.194-.172 7.791-.269l2.688-.068c7.242-.293 13.167-1.256 18.75-6.244L366 341l1-1c.439-5.99.36-11.411-2-17a431.3 431.3 0 0 1-1.625-4.188c-.26-.653-.52-1.307-.79-1.98C362 315 362 315 362 312a280.711 280.711 0 0 1 5-5l2-3c2.493-3.74 5.478-6.636 8.813-9.625 1.514-1.45 1.514-1.45 1.187-4.375l5-1 1-4Z"/><path fill="#7163C5" d="M126 309h3c-.424 2.107-.865 4.21-1.313 6.313l-.738 3.55c-.96 3.174-1.657 3.958-3.949 6.137-.548 2.102-.548 2.102-.5 4.375-.03.75-.062 1.5-.094 2.273.891 3.53 2.635 5.4 5.594 7.352 3.85 1.667 7.803 2.9 11.813 4.125 2.11.668 4.221 1.337 6.332 2.008l3.047.957c2.437.79 4.832 1.635 7.226 2.547a119.07 119.07 0 0 0 9.082 3.05l2.594.762L170 353v2l1.555.445c5.972 1.75 11.902 3.631 17.82 5.555l2.378.754c4.002 1.315 6.899 2.652 10.247 5.246 2.408.636 2.408.636 4.938.938 4.487.79 6.568 2.092 10.062 5.062 2.382 1.086 4.802 2.004 7.25 2.93 2.848 1.108 5.603 2.347 8.375 3.632 10.248 4.88 10.248 4.88 21.375 5.438 3.053-2.83 3.932-4.544 4.546-8.689.04-1.412.061-2.824.063-4.237l.05-2.265c.049-2.374.07-4.747.091-7.122.028-1.615.058-3.23.09-4.845.074-3.947.123-7.894.16-11.842 8.102 5.394 8.102 5.394 10 7v2l2.063.125c2.981.888 3.863 1.546 6.062 3.594 3.958 3.488 8.237 6.06 12.813 8.656l2.36 1.363c1.897 1.094 3.8 2.179 5.702 3.262-3.5 7.482-10.623 10.165-18 13-6.537 2-13.17 3.528-20 4l-2.828.371c-11.297.87-20.207-3.612-30.316-8.138-3.034-1.31-6.097-2.497-9.188-3.667a298.103 298.103 0 0 1-13.207-5.37c-25.116-10.912-50.937-20.072-77.062-28.272-4.226-1.628-6.865-3.124-9.399-6.924-2.95-9.531 4.011-19.648 8-28Z"/><path fill="#508F79" d="M366 250c5.682 4.261 9.675 9.404 14 15 .902 1.138 1.806 2.275 2.71 3.41 4.267 5.36 8.496 10.748 12.54 16.277l1.703 2.325L398 289l-1 3c.856 2.242.856 2.242 2.188 4.688 6.153 13.012 9.309 28.04 5.64 42.242-2.158 5.395-5.45 9.753-10.828 12.07v2c-18.27 8.799-37.221 9.174-56.523 2.535a209.37 209.37 0 0 1-7.961-3.133c-3.479-1.46-3.479-1.46-7.067-2.39-3.557-1.044-6.598-2.437-9.887-4.137l-3.183-1.633L307 343c3.582-1.298 5.347-.696 8.75.875 4.359 2.01 8.508 2.7 13.25 3.125l2.15.2c15.618 1.396 15.618 1.396 30.413-3.012 2.747-2.466 3.715-3.576 4.437-7.188.466-14.144-8.929-27.731-18.063-37.688l-2.597-2.753a64.025 64.025 0 0 1-5.34-6.684c-3.052-4.253-6.866-7.503-10.828-10.895C327 277 327 277 325 274c3.463.583 5.115 1.74 7.574 4.21l2.01 2.008 2.103 2.157 2.173 2.206c14.122 14.488 29.713 31.438 29.484 52.759-.56 4.338-2.056 5.8-5.344 8.66-4.714 2.79-8.904 4.045-14.328 4.316l-2.422.127-2.5.12-2.547.13c-2.067.106-4.135.207-6.203.307 15.456 3.335 32.174 4.142 46.375-3.75 8.207-5.379 12.312-11.685 14.625-21.25 1.757-12.05-2.485-24.408-8.633-34.633C386 289 386 289 385.016 286.484c-1.097-2.682-2.45-4.758-4.141-7.109l-1.871-2.61L377 274l-2.098-2.953c-3.774-5.368-3.774-5.368-8.14-10.242C365 259 365 259 365 257l2-1-1-6Z"/><path fill="#4559AE" d="M151 293c5.287 1.252 9.035 3.938 13.352 7.082a140.095 140.095 0 0 0 5.234 3.617C181.678 311.68 191.456 323.791 195 338a110.644 110.644 0 0 1-10.375-3.875c-11.022-4.35-21.185-6.48-33-6.5l-2.735-.005c-6.157.102-11.899.995-17.89 2.38l-2.945.633-2.18.492L122 332v-7l3-1 2-11 2 2c10.231-5.435 16.254-12.044 22-22Z"/><path fill="#EEF2F8" d="M225.2 209.152C237.08 216.99 244.79 227.44 249 241c.832 4.203 1.162 8.218 1.188 12.5l.042 3.281c-.24 3.371-1.03 6.072-2.23 9.219h-5l-.028-1.83c-.301-21.773-.301-21.773-10.972-40.17l-1.672-1.797c-8.897-8.593-21.449-14.13-33.766-14.453-12.852.301-22.89 4.882-32.234 13.727-9.428 10.219-13.164 20.742-12.676 34.457.797 12.123 6.162 24.274 14.723 32.879 6.365 5.405 13.817 7.63 21.625 10.187 1.673.651 3.343 1.31 5 2l-1 5c-11.147 0-23.465-5.52-31.555-13.313-9.947-11.614-17.196-25.989-16.625-41.609 1.29-14.923 7.68-27.542 18.938-37.523 18.496-14.633 41.838-16.264 62.441-4.403Z"/><path fill="#FCFDFE" d="M191 250c5.635.25 10.162 2.182 15.297 4.414 3.644 1.582 7.334 3.037 11.029 4.494 9.39 3.702 18.64 7.575 27.674 12.092-.313 1.875-.313 1.875-1 4-2.895 1.93-3.953 2.32-7.238 2.746l-2.487.35c-1.713.226-3.426.45-5.14.672-4.877.69-8.946 1.458-13.135 4.232-1.738 2.218-1.738 2.218-2.938 4.875l-1.472 2.918L210 294c-1.274 2.405-2.575 4.796-3.875 7.188L203 307l-5-1-.734-4.59-.486-3.032-1.068-6.69a3879.605 3879.605 0 0 0-2.868-17.739l-.556-3.404a2210.05 2210.05 0 0 0-1.068-6.482l-.486-2.985-.43-2.612c-.312-2.527-.427-4.923-.304-7.466l1-1Z"/><path fill="#97A96A" d="M396 290c4.004 1.335 4.946 3.8 6.875 7.313l1.067 1.92c10.439 19.111 16.45 41.492 10.433 63.08-4.327 11.489-12.289 20.748-23.422 26.171-27.429 10.23-58.221.12-83.953-10.484a135.32 135.32 0 0 1-3.582-1.82L301 375c-2.167.667-2.167.667-4 2a68.913 68.913 0 0 1-4 1l2-1.875c2.228-1.881 2.228-1.881 2-4.125l-3.184-1.723c-7.103-3.891-13.913-7.699-20.117-12.964-1.777-1.522-1.777-1.522-4.699-2.313a128.937 128.937 0 0 1-3.383-3.379c-1.942-1.947-3.99-3.742-6.055-5.558-4.517-4.047-8.877-8.234-13.187-12.5l-1.904-1.865-1.76-1.757-1.585-1.572C240 327 240 327 240 325h-2l-4-8c4.029 1.343 4.675 3.513 7 7a259.396 259.396 0 0 0 5 4v2l1.688.625c3.158 1.878 4.979 4.563 7.312 7.375l3 1 2.125 2.25c2.445 2.339 4.054 3.492 6.965 5 5.098 2.766 9.693 6.051 14.348 9.5 1.58 1.163 3.163 2.324 4.746 3.484.686.508 1.372 1.016 2.08 1.538 1.723 1.285 1.723 1.285 3.736 2.228v2l2.438.375L297 366l1 2a135.484 135.484 0 0 0 6.563 3.125l3.628 1.633L311 374v2l5 2v2l3.188.25c5.088.617 9.81 2.214 14.664 3.813 3.046.907 6.005 1.484 9.148 1.937v2c4.677.219 9.354.415 14.032.592 1.588.063 3.175.132 4.763.207 12.418.693 12.418.693 24.205-2.799.991-.425 1.983-.85 3.004-1.29 9.23-4.818 16.442-11.735 19.996-21.71 1.66-5.657 2.29-10.624 2.188-16.5l-.002-2.145c-.04-4.855-.51-9.547-1.186-14.355l-.7 2.344c-2.608 8.332-5.367 16.977-13.3 21.656-2.313-.25-2.313-.25-4-1h2v-2a921.54 921.54 0 0 1 4.473-3.66c5.339-4.684 6.185-11.532 6.789-18.25.444-12.377-2.786-24.038-8.309-35.05C396 292 396 292 396 290Z"/><path fill="#7367D6" d="M265 154c2.06 2.187 2.945 3.455 3.249 6.474l-.175 2.73-.166 2.968-.22 3.078-.186 3.125A692.39 692.39 0 0 1 267 180c1.258-2.517 1.208-4.413 1.316-7.227l.127-3.125.12-3.273.13-3.297c.107-2.692.209-5.385.307-8.078l2 1c.229 10.416-.287 20.509-1.538 30.848a1338.96 1338.96 0 0 0-1.38 12.043l-.28 2.511c-1.432 13.091-2.339 26.229-3.316 39.36a445.18 445.18 0 0 1-1.08 12.261c-2.009 19.592-2.067 39.299-2.406 58.977h-2c-.46-25.715-.115-51.222 1.875-76.875l.264-3.423c1.039-13.263 2.292-26.49 3.861-39.702l-1.752-.574c-5.328-1.749-10.602-3.624-15.865-5.559A208.84 208.84 0 0 0 242 184c1.152-2.468 2.048-4.048 4-6 .358-2.564.358-2.564.313-5.438l.05-2.933c-.426-3.086-1.208-3.542-3.363-5.629-.293-2.262-.293-2.262-.188-4.688l.083-2.449L243 155l1 3 3.324-1.129 4.363-1.434 2.186-.748c7.186-2.33 7.186-2.33 11.127-.689Z"/><path fill="#8F7DE4" d="m183 143 12 3 1-3c.114 6.766-.12 13.288-1 20l7-2-2-1 1-11c6.96.387 11.94 2.634 18 6v1l-9 3 4.2-.875 5.488-1.125 2.763-.578 2.686-.547 2.46-.508c2.504-.382 4.874-.43 7.403-.367v7l-1.757.962-7.93 4.35-2.764 1.514-2.686 1.475-2.46 1.349c-2.452 1.326-2.452 1.326-4.807 3.028-3.294 1.678-5.328 1.507-8.99 1.177l-3.643-.302-3.775-.365-3.834-.33c-3.12-.271-6.237-.558-9.354-.858v-7l-3-1c-.081-2.709-.14-5.415-.188-8.125l-.076-2.305c-.064-4.972.608-8.206 3.264-12.57Z"/><path fill="#93CD58" d="M87 190h1l-.105 3.953c-.181 9.841-.107 18.64 3.105 28.047l2.313-.563C96 221 96 221 99 222c2.967-1.837 2.967-1.837 5-4h3c3.563 6.066 6.463 11.787 8.285 18.59.947 3.192 2.303 6.116 3.75 9.11 2.74 6.533 3.228 12.267 3.09 19.238l-.027 2.65A909.43 909.43 0 0 1 122 274l2-2v2h9c1.023-3.379 1.134-6.479 1.125-10l.008-3.125c-.182-3.939-.308-6.05-3.133-8.875-.816-2.059-.816-2.059-1.563-4.438l-.753-2.37L128 243l-1-3 7.813-1.563L137 238c2.622 5.327 3.477 9.598 3.625 15.5.052 1.448.106 2.896.164 4.344l.08 2.108c.127 1.977.406 3.943.69 5.903.897 6.391-2.577 11.638-5.856 16.93-2.64 3.434-4.498 4.182-8.703 5.215-4.29.363-7.327.35-11-2 .432-3.53.937-6.802 2.02-10.195 1.114-4.325 1.324-8.177 1.293-12.618l-.011-2.396c-.142-7.675-1.075-14.838-6.302-20.791-4.016-1.135-6.988-.976-11 0h-3c-1.671.31-3.339.64-5 1-6.98-16.964-12.577-32.946-7-51Z"/><path fill="#694FDB" d="M218.75 102.313c3.142 1.15 5.845 2.282 8.25 4.687v2l2.309.27c8.173 1.418 11.997 4.149 16.855 10.832 5.598 8.837 9.541 19.318 8.836 29.898h-4l-.48-3.332c-2.22-14.86-2.22-14.86-10.083-27.356-2.563-1.628-2.563-1.628-6.437-1.312l1.072 2.673c3.744 10.095 4.625 18.938 4.553 29.64a600.1 600.1 0 0 0 .02 6.697c.018 1.99.01 3.981.002 5.972L240 166l3 2c.927 3.577 1.357 5.98.125 9.5-3.076 2.171-5.443 1.543-9.066 1.055C232 178 232 178 230 176c-.561-6.172-.561-6.172 1.313-8.938C233 166 233 166 236 166c-.36-4.481-.732-8.96-1.117-13.44a969.722 969.722 0 0 1-.375-4.556c-.994-16.092-.994-16.092-6.508-31.004-2.613-1.306-4.01-.998-6.875-.375-8.748 3.85-13.684 11.744-17.125 20.375-1.587 5.567-2.29 11.268-3 17a538.792 538.792 0 0 1-1 6h7v1l-13 3c.449-3.606.909-7.21 1.375-10.813l.383-3.103.39-2.979.35-2.745C197 142 197 142 199 139c.495-1.404.95-2.823 1.375-4.25 1.38-4.323 3.246-7.894 5.625-11.75h2v-2a88.882 88.882 0 0 1 4.75-3.875c3.308-2.544 6.358-5.112 9.25-8.125h-2v-3l-14-1v2l-7 2 2-4h2l1-3c4.64-2.32 10.005-1.185 14.75.313Z"/><path fill="#F0F3F9" d="m216 225 1.945 1.352c7.242 5.61 12.174 13.702 14.055 22.648.305 2.814.25 5.15 0 8l-2 2c-2.125-.375-2.125-.375-4-1l-.332-1.688c-2-9.625-4.441-18.515-12.793-24.5-6.784-4.244-14.8-7.145-22.875-5.812-8.395 2.17-15.561 6.842-20.414 14.121-1.841 3.504-3.2 6.919-3.586 10.879l-.191 1.918c-.472 8.597 2.29 16.18 7.629 22.894 4.896 5.166 11.02 7.645 17.562 10.188l-1 4c-4.49 1.593-7.338.038-11.54-1.773-8.172-4.074-13.957-11.931-17.46-20.227-2.34-9.129-2.561-21.207 1.617-29.797 4.79-7.632 11.004-13.664 19.383-17.203 11.538-2.22 24.088-3.069 34 4Z"/><path fill="#B6BE5E" d="M141 269c2.762 2.762 2.579 5.207 3 9h2c2.503 4.006 3.604 7.112 2.762 11.86-2.634 7.4-9.55 13.602-15.762 18.14-5.342 1.78-10.486 2.069-15.738-.164-4.609-2.663-8.323-5.293-11.262-9.836h4l-1.563-1.75C107 294 107 294 107 292c1.411-2.822 3.483-4.143 6-6a98.28 98.28 0 0 0 3-3v3c9.42 1.487 9.42 1.487 18-2 3.566-4.666 6.1-9.16 7-15Z"/><path fill="#354EA1" d="M235 226c7.092 8.704 8.472 18.71 8.188 29.625l-.042 3.043A649.273 649.273 0 0 1 243 266l5-1 2-18h1c1.73 7.61 1.055 15.673-3.082 22.371L246 272a2243.66 2243.66 0 0 1-11.313-4.813l-3.248-1.369-3.115-1.338-2.872-1.221c-2.376-1.22-3.868-2.118-5.452-4.259-.033-1.985-.058-3.972.004-5.957-.012-6.473-3.848-11.423-8.004-16.043-6.251-4.848-11.287-6.31-19.125-6.125l-2.168.027A905.12 905.12 0 0 0 185 231h-3c.625-1.875.625-1.875 2-4 7.29-3.471 14.306-2.327 21.68.086 3.145 1.239 5.648 2.85 8.32 4.914l3.125 2.25c6.538 6.254 8.82 14.966 9.875 23.75l4-1v-11l2 1c.027 1.73.047 3.458.063 5.188l.035 2.917c-.093 2.75-.477 5.22-1.098 7.895l7 3c-.187-17.19-2.176-30.03-14.723-42.746C213.016 212.967 199.586 212.344 185 213c-2.006.295-4.01.614-6 1 3.399-4.154 7.81-4.843 12.953-5.52 18.008-1.414 30.422 4.378 43.047 17.52Z"/><path fill="#7961D0" d="M201 103h2c0 2 0 2-1.5 3.625L200 108l6-1v-2c1.583-.027 3.167-.046 4.75-.063l2.672-.035c2.36.09 4.323.429 6.578 1.098v3h2c-1.506 4.218-4.24 5.775-8 8l-3 1-1 3h-2v2h-2l-.813 2.125C204 128 204 128 202.5 130.875c-1.59 3.314-2.529 6.587-3.5 10.125l-1 1a235.648 235.648 0 0 0-1 7h-1c-1.698-9.811 2.944-17.921 8-26 3.938-5.41 8.197-9.663 14-13-5.163-2.044-7.89-2.175-13.008-.02-11.863 6.072-15.303 16.649-19.414 28.63a59.977 59.977 0 0 1-3.219 7.656c-2.287 4.602-2.507 9.04-2.675 14.129l-.127 3.642-.12 3.775-.13 3.834c-.106 3.118-.208 6.236-.307 9.354l1.938.938C183 183 183 183 184 184c.467 5.366.467 5.366-1.23 7.672-2.242 1.682-3.553 1.73-6.333 1.703l-2.378.023L172 193c-2.313-3.47-2.425-4.922-2-9 1.375-1.875 1.375-1.875 3-3h2c-.01-.674-.02-1.347-.032-2.041-.177-13.177-.077-25.935 2.032-38.959l.492-3.66c1.746-11.48 7.826-22.573 16.508-30.34 3.375-1.438 3.375-1.438 6-2l1-1Z"/><path fill="#2C489A" d="M260 347c6.498 3.869 6.498 3.869 9 6v2l2.063.125c3.338.994 4.97 2.658 7.492 4.977 5.628 4.37 12.19 7.52 18.445 10.898v2c-11.084 7.854-25.199 13.726-39 13l.988-2.512c1.117-3.85 1.267-7.328 1.207-11.293l-.008-2.194c-.011-2.292-.036-4.584-.062-6.876-.01-1.562-.02-3.125-.027-4.688A2295.08 2295.08 0 0 0 260 347Z"/><path fill="#6159C3" d="M304 160c3.855-.448 5.503-.366 8.677 1.972 3.124 4.072 2.969 6.802 2.811 11.79l-.022 2.649c-.019 1.902-.05 3.803-.09 5.704a694.38 694.38 0 0 0-.12 9.157c-.067 7.614-.186 15.227-.308 22.84-.448 28.365.166 55.74 4.713 83.779.589 3.662 1.146 7.33 1.71 10.996 1.754 11.35 3.625 22.58 6.93 33.593C329 345 329 345 329 348h-5l-.297-2.605-.453-3.582-.422-3.481c-.578-3.626-1.643-6.995-2.777-10.484-2.117-6.69-3.225-13.276-4.113-20.223l-.496-3.692c-.331-2.477-.658-4.954-.98-7.433-.415-3.14-.855-6.275-1.31-9.41-3.501-24.528-4.476-49.053-4.358-73.803.016-3.385.021-6.77.02-10.156 0-3.277.01-6.554.018-9.83l.003-3.67.02-3.356.011-2.952C309 181 309 181 310 179c.071-1.978.084-3.958.063-5.938l-.028-3.214L310 167v-3l2 1v30l.75-14.25.269-4.478.153-3.538.19-3.618c-.1-3.2-.1-3.2-2.2-5.49-2.425-1.824-4.173-2.294-7.162-2.626v-1Z"/><path fill="#27469C" d="M269 154c5.437.559 9.918 1.94 14.938 4.063l2.072.853c1.666.688 3.329 1.385 4.99 2.084.208 5.836-.179 11.463-.875 17.25l-.238 2.076c-.368 2.896-.803 5.47-1.926 8.174-1.53 3.978-1.393 8.112-1.527 12.324-.08 1.73-.25 3.455-.434 5.176l-2 1c-4.408-9.41-4.408-9.41-5-14l-3-1-1-3-2.534-1.263C270 186 270 186 269.448 182.937l.099-3.722.029-1.99c.034-2.098.103-4.192.174-6.287.05-2.1.093-4.199.132-6.298.038-1.902.095-3.805.152-5.707.18-2.868.18-2.868-1.034-4.933Z"/><path fill="#8AB759" d="M116 174c8.253.346 8.253.346 11 2.75 1.638 3.685 2.482 5.968 1.02 9.86-1.265 4.204-1.241 7.909-1.145 12.265l.027 2.375c.024 1.917.06 3.833.098 5.75l-3 1h2c1.171 2.456 2.337 4.915 3.5 7.375l1.012 2.117C133 222.773 133 222.773 133 225l2.063-1c3.445-1.173 6.321-1.142 9.937-1v2l-11 2a871.52 871.52 0 0 0 3.875 5.5c.72 1.02 1.439 2.042 2.18 3.094L142 238h2l-.063 3.25c-.088 3.478-.088 3.478.563 5.688.5 2.062.5 2.062.375 5.5-.089 7.95 2.23 15.791 5.438 23 1.515 3.504 1.747 4.27.937 8.187L150 286c-4-4.625-4-4.625-4-8h-2c-2.636-9.108-4.462-17.73-4.672-27.238-.116-4.277-.775-7.774-2.328-11.762l-3.313.5C130 240 130 240 127 240c-3-6.625-3-6.625-3-10h7c-3.294-9.016-7.643-17.466-12-26l-1-2h3l-.84-2.703-1.097-3.547-1.09-3.516L117 189l-.625-2.063c-.5-2.586-.469-5.055-.438-7.687l.028-2.984L116 174Z"/><path fill="#3B4AAB" d="M263 289c4.822 2.143 8.368 5.142 11.625 9.25 2.653 3.327 5.451 4.957 9.125 7.063 3.82 2.622 5.504 4.543 6.402 9.023.611 4.544.824 9.082.848 13.664l.02 3.05L291 333c-5.534-.503-9.72-3.661-13.516-7.555-1.905-1.855-4.117-2.925-6.433-4.195-3.935-2.398-7.47-5.36-11.051-8.25l.469-2.45c.732-4.892.915-9.774 1.136-14.712.291-5.734.291-5.734 1.395-6.838Z"/><path fill="#87AE5F" d="M121 166c7.29-.25 13.907.277 21 2v2l2.813.438C148 171 148 171 151 172c-1.03 2.217-2.082 4.109-3.563 6.063-1.83 2.467-2.456 4.279-2.367 7.355.062 3.148-.123 5.567-1.07 8.582-2.54 2.488-5.182 4.247-8.188 6.14-3.754 2.483-6.08 5.316-8.812 8.86l-4-1 1-3v2h3l-.488-1.61c-1.335-6.235-1.396-13.5.8-19.515 1.046-5.891-1.637-9.732-4.312-14.875a196.108 196.108 0 0 1-2-5Z"/><path fill="#83D557" d="M109 214c2 3 2 3 2 6 2.468-1.152 4.048-2.048 6-4l1 6h2c3.176 7.064 6.197 14.185 9.176 21.334l1.02 2.436.906 2.175c.899 2.056 1.894 4.048 2.898 6.055 1.209 3.618 1.236 7.205 1.313 11l.113 3.688c-.495 3.848-1.435 4.952-4.426 7.312l-3.313-1c-3.533-1.13-3.533-1.13-6.687-1l.176-3.629c.425-12.768-1.5-22.11-6.707-33.812-1.531-3.71-2.633-7.368-3.656-11.246l-.538-1.971C109.411 220.07 109 217.417 109 214Z"/><path fill="#AEBD53" d="m86 186 2 1-.402 1.688c-3.702 15.995-1.904 32.722 5.558 47.62C94 238 94 238 94 241l2.188-.938c2.629-.993 5.031-1.676 7.812-2.062l1 1 2-2h4l2 2 2 1c1.035 2.398 1.035 2.398 2.063 5.375l1.035 2.96c1.18 3.486 2.026 6.22 2 9.895l-.01 2.432-.025 2.526-.014 2.56c-.012 2.084-.03 4.168-.049 6.252h-1l-.184-2.52-.254-3.293c-.08-1.078-.162-2.157-.246-3.269-.218-2.978-.218-2.978-1.316-5.918l-5 1-1-2-3.188.563c-3.528.404-5.504.564-8.812-.563-1.66-2.152-1.66-2.152-3.063-4.938l-1.523-2.988c-1.684-3.661-3.141-7.367-4.457-11.176-.858-2.257-.858-2.257-3.957-2.898l-1-2-1 7h-1c-1.297-7.007-1.221-14.017-1.25-21.125l-.063-3.766C81.653 205.662 82.764 198.135 85 190a738.12 738.12 0 0 0 1-4Z"/><path fill="#D2B261" d="M174 143h1c.065 4.002.053 7.998 0 12-.015 1.183-.03 2.367-.047 3.586l-.14 3.476-.106 3.223C174 168 174 168 171.777 169.781c-2.682 1.177-5.18 1.986-8.027 2.656-9.649 2.302-9.649 2.302-16.75 8.563-.172 2.83-.232 5.559-.195 8.387l.008 2.476c.011 2.608.037 5.216.062 7.825.01 1.768.02 3.537.027 5.306.022 4.336.057 8.67.098 13.006h2c-.866 8.116-1.766 14.944-6 22-4.202-3.718-6.998-8.317-10-13 2.9-1.659 4.916-2.236 8.25-2.125L145 225l-.487-2.484c-.574-3.937-.693-7.798-.716-11.766l-.017-2.353c-.01-1.633-.016-3.267-.02-4.9-.01-2.49-.041-4.977-.072-7.466-.007-1.593-.012-3.187-.016-4.781l-.038-2.235c.031-7.238 2.779-11.637 7.366-17.015l-9-2v-2l-4-1 15 1 4-6h2l.75-2.375c1.432-3.008 2.28-3.38 5.25-4.625l1-2 2-1 1-2h4l1-7Z"/><path fill="#0F457C" d="M223 304c3.505 1.168 3.935 1.967 5.918 4.965l1.611 2.424 1.659 2.548 1.693 2.538C238 322.726 238 322.726 238 325h2c1.724 1.754 3.222 3.661 4.777 5.566 2.207 2.556 2.207 2.556 5.164 4.711 7.653 6.187 7.653 6.187 8.451 11.172.193 5.905-.458 11.726-1.392 17.551-3.144-1.35-4.801-2.67-6.77-5.457l-1.494-2.105-1.548-2.25-1.606-2.298c-3.844-5.59-7.156-11.274-10.18-17.35-1.21-2.502-1.21-2.502-2.862-3.902-1.878-1.998-2.608-3.825-3.583-6.384l-1.064-2.787-1.08-2.904-1.116-2.893C223 308.519 223 308.519 223 304Z"/><path fill="#BAAC53" d="m406 353 1 3c-3.726 6.941-10.075 12.392-17 16h-4l-1 2-5 2-1 2a2719.6 2719.6 0 0 1-11.938-.875l-3.384-.238c-6.386-.487-12.526-1.052-18.678-2.887l-1-3-3 1-1-3c1.626-1.983 2.433-2.935 5.034-3.233l2.318.194 2.582.18 2.691.234c6.659.536 12.745.553 19.375-.375v-2l4-1 2 3c10.553-2.293 20.107-5.107 28-13Z"/><path fill="#B6A754" d="M245 301c1.273.934 2.543 1.873 3.813 2.813l2.144 1.582C253 307 253 307 254.449 308.512c1.982 1.902 4.19 3.086 6.551 4.488 3.02 2.243 5.99 4.541 8.965 6.844 2.95 2.22 2.95 2.22 6.164 3.687 2.947 1.508 4.573 3.13 6.871 5.469a89.961 89.961 0 0 0 5.5 3.063c4.205 2.188 8.367 4.414 12.484 6.765l2.635 1.492a583.75 583.75 0 0 1 5.137 2.948c4.704 2.646 8.884 4.33 14.19 5.313 2.94.6 5.564 1.717 8.304 2.919l2.953 1.281L337 354c3.347 1.393 6.42 2.386 10 3v1a372.155 372.155 0 0 1-18.313-1.875l-3.425-.43c-3.484-.742-6.12-2.05-9.262-3.695-1.995-.547-1.995-.547-3.938-.813-11-2.244-21.45-7.552-31.062-13.187v-2l-3-1-.867-2.777c-1.38-3.925-3.002-5.25-6.258-7.786l-2.965-2.324a96.263 96.263 0 0 0-7.598-4.988L257 315v-3h-3c-2.438-2.25-2.438-2.25-5-5l-2.313-2.188C245 303 245 303 245 301Z"/><path fill="#67AD73" d="m322 213 3 1v2l5 2v2l1.875.313C334 221 334 221 336 224c1.663.676 3.33 1.341 5 2 6.566 4.705 12.466 10.207 18.059 16.02 2.03 2.14 2.03 2.14 4.878 4.417 3.043 3.78 3.448 7.835 4.063 12.563l-1-2-1.723-.266c-3.484-1.123-5.386-3.794-7.714-6.484-.936-1.058-1.872-2.116-2.81-3.172l-1.394-1.575c-3.608-3.99-7.531-7.671-11.484-11.315l-2.57-2.395c-2.213-2.1-2.213-2.1-5.305-1.793a95.035 95.035 0 0 0-4 5c-2.425 2.646-3.562 3.854-7 5v2h-2c-.029-4.27-.047-8.542-.063-12.813l-.025-3.681-.01-3.526-.016-3.253C321 216 321 216 322 213Z"/><path fill="#A1C455" d="M87 190h1l-.105 3.953c-.181 9.841-.107 18.64 3.105 28.047l2.313-.563C96 221 96 221 99 222c2.967-1.837 2.967-1.837 5-4h3c3.561 6.062 6.473 11.78 8.277 18.586.758 2.53 1.768 4.784 2.91 7.164 1.663 3.56 2.221 6.268 1.813 10.25-1.94-2.91-2.968-5.409-4.125-8.688l-1.07-3.011L114 240c-4.353-.768-7.71-1.073-12 0h-3c-1.671.31-3.339.64-5 1-6.98-16.964-12.577-32.946-7-51Z"/><path fill="#224596" d="M294 163h15c2.053 4.106 2.222 5.802 2.125 10.25l-.055 3.266L311 179l-2.281.809C301.293 183.063 297.485 190.043 294 197l-1.75 3c-1.648 3.956-1.976 7.751-2.25 12h-1c-.314-10.729-.103-21.166 1.375-31.813l.382-2.762c.748-5.033 1.824-9.458 3.243-14.425Z"/><path fill="#34509E" d="m168 229 2 1-1.207 1.469c-6.054 7.659-8.034 13.554-8.106 23.156-.005.729-.01 1.458-.017 2.209.081 6.03 1.581 10.95 4.268 16.353l.964 1.981c1.041 1.91 1.041 1.91 2.727 3.445C170 280 170 280 170 282l1.77.84c2.12 1.103 3.965 2.351 5.917 3.723 4.32 2.765 8.253 3.308 13.313 3.437l1-2 3 1 1 13h2l-1 4v-3h-2l-1 3-2-1v-4l-16-5-1-6-1.688-.25c-4.54-1.472-7.794-4.774-10.312-8.75v-2h-2c-4.011-7.475-5.346-14.075-5.313-22.438l-.048-2.447c-.007-8.53 2.08-14.387 8.048-20.615l2.45-2.594L168 229Z"/><path fill="#4B926D" d="M314 206c4.367 1.636 7.742 3.869 11.375 6.75l1.727 1.35A266.568 266.568 0 0 1 339 224l-3 1-.75-1.938c-1.038-2.237-1.038-2.237-3.188-2.625L330 220c-1.438-1.313-1.438-1.313-3-3a479.121 479.121 0 0 0-5-4c-.985 20.714-.985 20.714-.688 41.438l.106 2.356c.28 4.644 1.168 8.747 2.582 13.206.341 1.331.68 2.664 1 4l-1.426-1.242-1.887-1.633-1.863-1.617c-1.959-1.672-1.959-1.672-4.824-3.508-1.057-3.534-1.122-6.946-1.114-10.616v-3.336l.016-3.568.005-3.677c.005-3.872.018-7.744.03-11.615.006-2.627.01-5.254.014-7.881.011-6.436.028-12.871.049-19.307Z"/><path fill="#2F5798" d="m196 339 1 2 2.125.75c3.876 1.685 6.975 4.175 9.875 7.25v2h2v2h2c5.558 6.472 10.679 14.12 14 22l-1 2a529.1 529.1 0 0 1-5.313-1.813l-2.988-1.019c-2.646-1.145-3.72-2.179-5.699-4.168-2.173-.668-2.173-.668-4.5-1.125-4.103-1.317-4.103-1.317-5.684-3.54C199.273 358.3 198.83 350.41 198 343h-2v-4Z"/><path fill="#6E56E1" d="m291 161 2 1c2.374.071 4.75.084 7.125.063l3.883-.028L307 162v1h-13a566.374 566.374 0 0 0-1.667 10.738c-.226 1.536-.46 3.07-.702 4.604-2.97 19.153-3.13 38.158-3.077 57.49.01 3.548.002 7.094-.02 10.64-.168 26.083.717 52.06 5.02 77.846.602 3.617.51 7.02.446 10.682l-4-2-.148-3.34-.227-4.598c-.03-.716-.062-1.432-.094-2.17-.273-5.352-.842-10.645-1.5-15.962-1.051-8.61-1.7-17.207-2.156-25.868l-.125-2.354c-1.607-31.066-1.352-61.799 2.25-92.708l.437-3.832c.808-7.062 1.656-14.118 2.563-21.168Z"/><path fill="#2A4A95" d="M151 280c2.72 2.602 4.92 5.226 7.063 8.313C166.431 299.209 179.837 304.13 193 306l-3 1-1 3c-10.683.276-16.637-2.6-25-9a325.986 325.986 0 0 0-5-3.438l-2.063-1.433c-1.983-1.156-3.694-1.693-5.937-2.129l-1.215 2.125c-5.45 9.097-11.528 16.383-21.785 19.875 0-3.188 0-3.188 1-7 1.805-1.454 3.708-2.455 5.738-3.57 9.218-5.827 13.189-15.442 16.262-25.43Z"/><path fill="#5D9B77" d="M366 250c5.682 4.261 9.675 9.404 14 15 .902 1.138 1.806 2.275 2.71 3.41 4.267 5.36 8.496 10.748 12.54 16.277l1.703 2.325L398 289l-1 3c.883 3.15.883 3.15 2 6h-2l-2 4-1-2h-2a1454.68 1454.68 0 0 1-2.875-5.188l-1.617-2.917C386 289 386 289 385 286.425c-1.094-2.652-2.451-4.722-4.125-7.05l-1.871-2.61L377 274c-.692-.975-1.384-1.95-2.098-2.953-3.774-5.368-3.774-5.368-8.14-10.242C365 259 365 259 365 257l2-1-1-6Z"/><path fill="#689377" d="M325 274c3.463.583 5.115 1.74 7.574 4.21l2.01 2.008 2.103 2.157 2.173 2.206c14.122 14.488 29.713 31.438 29.484 52.759-.56 4.338-2.056 5.8-5.344 8.66-4.714 2.79-8.904 4.045-14.328 4.316l-2.422.127-2.5.12-2.547.13c-2.067.106-4.135.207-6.203.307l5 1v2l2.082.184 2.73.253 2.708.247C350 355 350 355 353 356v2c3.939-.053 7.875-.148 11.813-.25l3.333-.043c6.726-.198 12.203-1.16 18.423-3.76 2.469-.962 4.824-1.501 7.431-1.947-3.007 2.482-5.826 3.843-9.5 5.125l-2.844 1.008c-16.598 5.419-36.46.768-52.14-5.73-3.479-1.461-3.479-1.461-7.067-2.391-3.557-1.044-6.598-2.437-9.887-4.137l-3.183-1.633L307 343c3.582-1.298 5.347-.696 8.75.875 4.359 2.01 8.508 2.7 13.25 3.125l2.15.2c15.618 1.396 15.618 1.396 30.413-3.012 2.747-2.466 3.715-3.576 4.437-7.188.466-14.144-8.929-27.731-18.063-37.688l-2.597-2.753a64.025 64.025 0 0 1-5.34-6.684c-3.052-4.253-6.866-7.503-10.828-10.895C327 277 327 277 325 274Z"/><path fill="#93CD57" d="M87 196h1l1 8h2l1-2h2l3.5-.563C101 201 101 201 103 202l2-2c2.877 8.87 4.925 17.918 7 27-1.785-1.693-2.934-2.85-3.938-5.125-.908-2.082-.908-2.082-3.187-2.625L103 219l-1 3c-4.026 1.527-7.925 1.164-12 0-2.71-8.806-3.367-16.81-3-26Z"/><path fill="#C9AE53" d="m97 259 1.688 3.063c1.54 2.715 3.21 5.238 5.062 7.75C106 273 106 273 106 275h2a262.496 262.496 0 0 1 4 5l2 1c.375 2.188.375 2.188 0 5-1.84 1.99-3.792 3.39-6 5 .53 3.821 1.497 6.062 4 9-2.169-.506-4-1-6-2l-.375-2.938L105 292l-1.898-.91c-2.742-1.422-3.198-2.769-4.352-5.59l-1.016-2.406C97 281 97 281 97 279h-2a2610.39 2610.39 0 0 1-1.938-6.188l-1.09-3.48A79.142 79.142 0 0 1 90 261c3-2 3-2 7-2Z"/><path fill="#D5A652" d="m152.063 140.688 3.72-.01c6.412.038 12.088.402 18.217 2.322l-1 7-2.902-.219c-24.422-2.29-24.422-2.29-46.836 5.781A57.819 57.819 0 0 1 117 159c2.962-7.034 6.718-12.469 13.781-15.854 6.973-2.73 13.885-2.556 21.281-2.458Z"/><path fill="#7555E7" d="m269 155 2 1c.229 10.416-.287 20.509-1.538 30.848a1338.96 1338.96 0 0 0-1.38 12.043l-.28 2.511c-1.432 13.091-2.339 26.229-3.316 39.36a445.18 445.18 0 0 1-1.08 12.261c-2.009 19.592-2.067 39.299-2.406 58.977h-2c-.46-25.715-.115-51.222 1.875-76.875l.264-3.423c1.039-13.263 2.292-26.49 3.861-39.702l-2-1 2-1c4.586-10.752 3.737-23.553 4-35Z"/><path fill="#A8BD5A" d="M396 290c4.005 1.335 4.944 3.8 6.875 7.313l1.063 1.9c3.148 5.737 5.856 11.622 8.062 17.787l1.117 3.012c1.558 5.638 1.17 11.565 1.133 17.363l.023 3.578c-.037 16.811-.037 16.811-4.273 21.047l.492-2.973c.593-4.166.656-8.262.633-12.464l.012-2.159c-.01-4.88-.45-9.571-1.137-14.404l-.7 2.344c-2.608 8.332-5.367 16.977-13.3 21.656-2.313-.25-2.313-.25-4-1h2v-2a921.54 921.54 0 0 1 4.473-3.66c5.339-4.684 6.185-11.532 6.789-18.25.444-12.377-2.786-24.038-8.309-35.05C396 292 396 292 396 290Z"/><path fill="#4348B7" d="M260 347h1l2 22c10.537 3.798 19.883 4.75 31 5-3.755 3.305-7.558 5.34-12.188 7.125l-2.001.784c-7.138 2.715-14.113 4.496-21.811 4.091l.988-2.512c1.117-3.85 1.267-7.328 1.207-11.293l-.008-2.194c-.011-2.292-.036-4.584-.062-6.876-.01-1.562-.02-3.125-.027-4.688A2295.08 2295.08 0 0 0 260 347Z"/><path fill="#8460E0" d="M176 142h1l-2 39-4 1-.125 3.813-.07 2.144c.062 2.357.062 2.357 2.195 5.043 1.964.577 1.964.577 4.125.688L181 194l-1 2c-6.338.366-6.338.366-9.375-1.313-2.457-2.55-2.621-4.636-2.875-8.125.27-3.859.87-4.707 3.25-7.562.714-2.65.714-2.65 1-5-12.281 2.076-12.281 2.076-22 9a64.281 64.281 0 0 0-.406 7.66l-.033 2.26c-.046 3.189-.057 6.378-.072 9.568a892.312 892.312 0 0 1-.083 6.985l.01 2.194c-.031 2.032-.031 2.032-.416 5.333l-3 2c-.1-5.32-.172-10.64-.22-15.96-.02-1.81-.047-3.619-.082-5.427a655.438 655.438 0 0 1-.089-7.812l-.062-2.44c-.002-3.934.165-5.895 2.281-9.319 2.768-2.602 5.253-3.5 8.86-4.667l3.511-1.164L164 171a3162.28 3162.28 0 0 0 9-3l.168-1.848c.254-2.78.511-5.56.77-8.34l.263-2.908.264-2.822.238-2.587c.302-2.535.763-4.999 1.297-7.495Z"/><path fill="#F1F4FA" d="M194.395 237.813c5.787-.278 9.038.289 13.605 4.187l1.875 1.438c1.584 2.2 1.339 3.923 1.125 6.562l-4 1-.75-1.875c-1.51-2.566-2.537-2.992-5.25-4.125-4.232-1.007-7.78-1.477-11.875.125-2.555 2.254-3.873 3.675-5.125 6.875-.037 3.08.22 6.017 1 9l2 2c.125 2.625.125 2.625 0 5l-4 1c-4.742-6.884-5.668-11.74-5-20 1.188-2.875 1.188-2.875 3-5l2.313-2.75c3.729-3.122 6.377-3.07 11.082-3.438Z"/><path fill="#8F996A" d="M178 133h1c-.596 4.869-1.57 9.328-3 14l-1-4c-7.678-1.026-15.258-1.217-23-1.25l-3.695-.063c-10.297-.044-17.956 1.143-25.582 8.36-4.61 5.226-6.289 11.26-7.723 17.953h-1c.48-5.569 1.3-10.67 3-16-3.785 1.36-6.8 3.093-10.063 5.438l-2.535 1.808L102 161l-2.246 1.547c-2.5 2.071-2.792 4.387-3.754 7.453a150.052 150.052 0 0 1-4 6 387.068 387.068 0 0 0-3 5l-2-1c4.22-14.668 14.538-25.562 27.521-32.859 18.913-9.975 39.96-8.923 60.479-6.141l3-8Z"/><path fill="#59A864" d="M112 165h1l-.048 3.481a2150.3 2150.3 0 0 0-.117 12.95 923.457 923.457 0 0 1-.061 5.574c-.224 14.08-.224 14.08 2.674 27.807C116 217 116 217 115 220h-4l-1-6h-2c-1.73-6.774-2.42-13.077-2.438-20.063l-.009-3.027c.12-7.47.724-20.187 6.447-25.91Z"/><path fill="#564BCA" d="m180 143-1 38 4 2c1 1 1 1 1.25 3.875-.25 3.125-.25 3.125-1.48 4.797-2.242 1.682-3.553 1.73-6.333 1.703l-2.378.023L172 193c-2.313-3.47-2.425-4.922-2-9 1.375-1.875 1.375-1.875 3-3h2c-.01-.694-.02-1.389-.032-2.104-.042-3.216-.068-6.43-.093-9.646l-.05-3.309c-.044-7.38.183-14.787 2.175-21.941 2-1 2-1 3-1Z"/><path fill="#56A265" d="M116 174c8.253.346 8.253.346 11 2.75 1.638 3.685 2.482 5.968 1.02 9.86-1.265 4.204-1.241 7.909-1.145 12.265l.027 2.375c.024 1.917.06 3.833.098 5.75h-3v-2h-2l-.586-1.977c-1.137-3.815-2.28-7.62-3.539-11.398-1.432-4.295-1.992-7.819-1.938-12.375l.028-2.984L116 174Z"/><path fill="#C1BC60" d="m145 286 3 1c.29 3.101.211 4.651-1.426 7.352l-1.887 2.273c-.614.755-1.23 1.51-1.863 2.29-3.608 4.125-5.187 5.459-10.824 6.085v2c-5.562.915-9.676 1.32-15-1 .997-2.493 1.65-3.775 3.938-5.25C123 300 123 300 126 300v-2c1.46-1.29 1.46-1.29 3.375-2.625l1.898-1.352C133 293 133 293 135 293l2-2c2.125.375 2.125.375 4 1l4-6Z"/><path fill="#72C05B" d="M109 214c2 3 2 3 2 6 2.468-1.152 4.048-2.048 6-4l1 6h2a964.233 964.233 0 0 1 4 9l1.414 3.164 1.398 3.211 1.333 3.023C129 243 129 243 128 246c-3.581-.614-6.823-1.208-10-3-3.403-5.174-5.187-10.227-6.75-16.188l-.668-2.404C109.584 220.718 109 217.88 109 214Z"/><path fill="#7859DD" d="M311 247h1c.34 3.812.67 7.625 1 11.438l.29 3.24c.524 6.135.814 12.165.71 18.322h2l.335 2.795c.418 3.461.84 6.922 1.264 10.382.182 1.49.362 2.981.541 4.472 1.221 10.177 2.633 19.952 5.997 29.68 1.126 3.486 2.098 7.01 3.05 10.546l.543 1.985c.747 2.81 1.27 5.218 1.27 8.14h-5l-.297-2.605-.453-3.582-.422-3.481c-.578-3.626-1.643-6.995-2.777-10.484-2.117-6.69-3.226-13.276-4.113-20.223l-.492-3.678c-.33-2.473-.654-4.946-.976-7.42-.43-3.222-.899-6.435-1.388-9.648-1.984-13.356-2.45-26.386-2.082-39.879Z"/><path fill="#735ECF" d="M259 346h1c.828 7.973 1.155 15.926 1.25 23.938l.064 2.725c.028 5.237-.452 8.766-3.314 13.337 14.555-2.725 27.161-6.381 40-14-3.5 7.482-10.623 10.165-18 13-11.2 3.428-27.149 7.347-38.375 2.5L239 386v-2l-4-2c6.556.756 6.556.756 8.938 2.063 3.194 1.452 6.664 1.886 10.062.937 3.456-3.378 4.466-5.923 4.606-10.75l.003-2.176.05-2.265c.049-2.374.07-4.747.091-7.122.028-1.615.058-3.23.09-4.845.074-3.947.123-7.894.16-11.842Z"/><path fill="#6853D1" d="m192 111 2 1c-.385 2.77-.656 4.582-2.457 6.77-1.971 2.85-2.323 5.262-2.918 8.668-1.417 7.154-3.443 13.978-6.625 20.562l-2 1-1-5h-2c-.312-11.374 3.239-22.035 10.57-30.898C189 112 189 112 192 111Z"/><path fill="#7C65CD" d="M229 117c4.497 8.162 5.316 17.335 5.688 26.5l.142 2.742c.225 4.907.225 4.907.17 6.758-1.805 1.805-4.731 1.415-7.188 1.621L226 155l-1 2c-2.864.64-5.669 1.17-8.563 1.625l-2.443.406A942.3 942.3 0 0 1 208 160c1-2 1-2 3.066-2.852l2.496-.773c.827-.26 1.653-.52 2.504-.79L218 155l-5-2c3.3-1.1 5.366-.685 8.74-.19 2.436.205 4.611.026 7.033-.279l2.412-.295L233 152c-.993-11.401-2.668-22.033-6-33-1.858-.65-1.858-.65-4-1-11.977 6.25-16.074 18.833-20 31h-2c1.287-12.714 6.11-22.628 15.5-31.313 4.375-2.953 7.914-3.583 12.5-.687Z"/><path fill="#B2AD65" d="M245 301c1.273.934 2.543 1.873 3.813 2.813l2.144 1.582C253 307 253 307 254.449 308.512c1.982 1.902 4.19 3.086 6.551 4.488 3.02 2.243 5.99 4.541 8.965 6.844 2.95 2.22 2.95 2.22 6.164 3.687 2.947 1.508 4.573 3.13 6.871 5.469a89.961 89.961 0 0 0 5.5 3.063c4.205 2.188 8.367 4.414 12.484 6.765l2.635 1.492a583.75 583.75 0 0 1 5.137 2.948c4.704 2.646 8.884 4.33 14.19 5.313 2.94.6 5.564 1.717 8.304 2.919l2.953 1.281L337 354c3.347 1.393 6.42 2.386 10 3v1c-15.136-.34-27.879-7.186-41-14a1574.349 1574.349 0 0 0-6.75-3.438l-2.797-1.433c-2.168-.998-4.123-1.655-6.453-2.129v-2l-2.219-.813c-3.513-1.5-6.388-3.558-9.5-5.75-2.252-1.518-2.252-1.518-4.851-2.445-2.472-1.01-3.877-2.052-5.805-3.867-3.317-2.975-6.694-5.04-10.625-7.125v-3h-3c-2.438-2.25-2.438-2.25-5-5l-2.313-2.188C245 303 245 303 245 301Z"/><path fill="#7DA85E" d="M116 204h4c1.444 2.663 2.88 5.33 4.313 8l1.224 2.254c2.574 4.812 4.817 9.534 6.463 14.746l-1 3a532.43 532.43 0 0 1-5-1l-2.188-.25C122 230 122 230 120.75 227.625 120 225 120 225 120 222h-2c-2.782-5.447-3.648-9.883-3-16l1-2Z"/><path fill="#AFC15B" d="m115 283 1 3c7.3 1.114 12.27 1.174 19-2-1.196 4.384-2.387 7.154-6 10h-3l-1 3-5 1-2.313.875c-4.333.202-7.26-2.418-10.687-4.875.789-4.246 2.58-5.414 6-8l2-3Z"/><path fill="#BCAB52" d="m323 373 1 2 2-.617c3.94-.503 7.238.444 11 1.492 6.459 1.736 6.459 1.736 13 3.125-1.61 3.219-3.07 4.848-6 7-3.479-.08-6.662-1.072-10-2a315.528 315.528 0 0 0-5.125-1c-4.332-.864-8.6-1.892-12.875-3v-2l-5-2c3.053-.981 4.947-.981 8 0l1-2 3-1Z"/><path fill="#B2A555" d="M234 317c4.029 1.343 4.675 3.513 7 7a259.396 259.396 0 0 0 5 4v2l1.688.625c3.158 1.878 4.979 4.563 7.312 7.375l3 1 2.125 2.25c2.445 2.339 4.054 3.492 6.965 5 5.098 2.766 9.693 6.051 14.348 9.5 1.58 1.163 3.163 2.324 4.746 3.484.686.508 1.372 1.016 2.08 1.538 1.723 1.285 1.723 1.285 3.736 2.228v2c-4.223-.565-6.92-2.01-10.438-4.375-3.777-2.486-7.456-4.738-11.562-6.625v-2l-2.156-.203c-3.746-1.05-5.53-2.871-8.344-5.547l-1.538-1.455A573.787 573.787 0 0 1 253 340l-1.822-1.76a930.527 930.527 0 0 1-5.428-5.303l-1.736-1.696c-1.378-1.375-2.702-2.804-4.014-4.241v-2h-2l-4-8Z"/><path fill="#C8AF6D" d="M183 145c8.036.938 8.036.938 12 2-.14 2.125-.288 4.25-.438 6.375-.08 1.183-.162 2.367-.246 3.586C194 160 194 160 193 162c-1.707.852-1.707.852-3.813 1.625-.687.26-1.374.52-2.082.79C185 165 185 165 181 165c-.211-7.044-.08-13.241 2-20Z"/><path fill="#ADBA55" d="M121 166c7.29-.25 13.907.277 21 2v2l2.813.438C148 171 148 171 151 172c-1.004 2.163-1.974 3.969-3.5 5.813-1.98 2.886-2.657 5.815-3.5 9.187-4.798-2.07-7.663-5.358-10-10-.208-2.992.261-5.044 1-8l-2.555-.148-3.32-.227c-1.09-.07-2.181-.14-3.305-.21C123 168 123 168 121 166Z"/><path fill="#63B560" d="m321 216 5 3v2l1.875.938L332 224v2l3 1c-2.75 5.75-2.75 5.75-5 8-.96 1.02-.96 1.02-1.938 2.063C326 239 326 239 323 240v2h-2v-26Z"/><path fill="#90A26E" d="M86 181h1c-.438 5.168-1.203 9.942-2.516 14.96-1.648 7.052-1.98 13.757-1.921 20.977l.01 3.787c.157 10.691 1.627 20.867 4.06 31.263C87 254 87 254 87 258h2c1.007 2.935 2.005 5.873 3 8.813l.867 2.525.82 2.432.762 2.237C95 276 95 276 95 279h2c.315.748.63 1.495.953 2.266l1.297 2.984 1.266 2.953c1.34 2.887 1.34 2.887 3.718 4.906L106 294c-.25 2.25-.25 2.25-1 4-20.462-26.433-28.081-64.257-24-97a135.478 135.478 0 0 1 5-20Z"/><path fill="#89A15F" d="m115 151 3 1c-.813 2.938-.813 2.938-2 6l-3 1-2.375 2.375C108 164 108 164 105.437 165.5c-4.088 2.516-6.221 6.04-8.437 10.188-2.081 3.446-2.649 3.69-6 5.312-1.767 3.033-1.767 3.033-3 6h-1v-7l3-1c1.163-1.795 1.163-1.795 2.063-3.938 1.162-2.57 1.914-4.039 3.937-6.062l.762-2.832c1.58-4.04 3.534-5.37 7.05-7.856l3.145-2.261L110 154c.89-.605 1.781-1.21 2.7-1.832L115 151Z"/><path fill="#8F7EC1" d="M145 184h1l1 34h2c-.866 8.116-1.766 14.944-6 22-4.202-3.718-6.998-8.317-10-13 2.9-1.659 4.916-2.236 8.25-2.125L145 225l-.492-2.517c-.549-3.762-.652-7.426-.64-11.217l-.004-2.18c0-1.51.001-3.019.006-4.528.005-2.315 0-4.63-.007-6.945 0-1.47.002-2.94.004-4.41l-.006-2.099c.024-4.874.024-4.874 1.139-7.104Z"/><path fill="#5E966B" d="M307 342c5.303.92 10.37 2.58 15.498 4.184 4.844 1.468 9.463 2.315 14.502 2.816l-2 2 5 1v2l2.082.184 2.73.253 2.708.247C350 355 350 355 353 356v2c3.939-.053 7.875-.148 11.813-.25l3.333-.043c6.726-.198 12.203-1.16 18.423-3.76 2.469-.962 4.824-1.501 7.431-1.947-3.007 2.482-5.826 3.843-9.5 5.125l-2.844 1.008c-16.598 5.419-36.46.768-52.14-5.73-3.479-1.461-3.479-1.461-7.067-2.391-3.557-1.044-6.598-2.437-9.887-4.137l-3.183-1.633L307 343v-1Z"/><path fill="#7656E6" d="M239 139h1v13l3 1-2 1c.087 1.772.195 3.542.313 5.313l.175 2.988c.573 3.02 1.266 3.732 3.512 5.699 1.076 3.536 1.32 5.278-.188 8.688-3.19 4.07-3.19 4.07-5.812 5.312-3.116.14-6.048.043-9-1-2.522-3.665-2.694-7.693-2-12 3-5.5 3-5.5 6-7 .407-2.322.744-4.657 1-7l-10 1 1-2c2.025-.29 4.052-.573 6.09-.754 1.993-.15 1.993-.15 3.91-1.246.135 2.27.232 4.54.313 6.813l.175 3.832c-.16 1.107-.322 2.214-.488 3.355-2.5 1.719-2.5 1.719-5 3-.417 3.626-.417 3.626 0 7 4.122 1.63 6.707 2.263 11 1 .934-4.531.934-4.531 0-9l-3-2c-.34-2.706-.34-2.706-.293-6.102l.03-3.671c.024-1.271.05-2.542.076-3.852l.04-3.875c.036-3.167.085-6.333.147-9.5Z"/><path fill="#77CD5A" d="M112 161c-.5 7.494-2.438 13.957-5 21l-1.238-1.52c-1.64-1.685-1.64-1.685-3.805-1.554l-2.144.387L96 180c0-6 3.165-9.81 6.938-14.313 2.41-1.971 5.81-4.687 9.062-4.687Z"/><path fill="#4D48C0" d="M231 111c3.28-.179 4.989-.17 8 1 9.161 8.414 15.17 20.804 16.184 33.254.003 1.583-.079 3.166-.184 4.746h-4l-.48-3.332c-2.151-15.861-2.151-15.861-11.583-28.106A971.515 971.515 0 0 0 235 116c-2.5-2.313-2.5-2.313-4-4v-1Z"/><path fill="#698A68" d="m143 245 2 1-.105 1.95c-.292 9.717 1.478 18.593 5.417 27.488 1.516 3.504 1.748 4.27.938 8.187L150 286c-4-4.625-4-4.625-4-8h-2c-3.196-10.044-5.792-23.092-1-33Z"/><path fill="#DFE6F4" d="M191 250c5.883.261 10.683 2.39 16.035 4.746 2.95 1.247 5.916 2.28 8.965 3.254v1l-19-1-2 9-1 1c-.04 2-.043 4 0 6-2.098-3.534-2.581-6.892-3.125-10.938l-.508-3.652c-.307-2.853-.525-5.547-.367-8.41l1-1Z"/><path fill="#616EA9" d="M304 160c3.902-.454 5.5-.382 8.674 2.045 2.838 3.605 2.99 6.154 2.85 10.549l-.014 2.302c-.02 2.536-.078 5.07-.135 7.604-.022 1.784-.042 3.569-.06 5.353a1837.95 1837.95 0 0 1-.25 14.851c-.092 4.699-.168 9.397-.246 14.096A7996.638 7996.638 0 0 1 314 259h-1c-.876-14.376-1.116-28.726-1.125-43.125l-.004-2.67c-.004-9.06.065-18.103.496-27.154l.095-2.063c.147-3.139.32-6.273.534-9.408l.176-3.287.19-2.827c-.486-3.31-1.783-4.418-4.362-6.466-2.642-.797-2.642-.797-5-1v-1Z"/><path fill="#6153D2" d="m291 161 2 1c2.374.071 4.75.084 7.125.063l3.883-.028L307 162v1h-13a668.57 668.57 0 0 0-2 13l-.365 2.473c-2.524 17.501-3.167 34.873-3.305 52.52-.03 3.515-.076 7.03-.121 10.544-.085 6.821-.153 13.642-.209 20.463h-1a3970.79 3970.79 0 0 1-.537-20.416c-.058-2.303-.12-4.606-.187-6.908-.472-16.37.035-32.384 1.724-48.676l.234-2.27c.415-3.937.886-7.865 1.391-11.792l.406-3.272c.318-2.556.641-5.111.969-7.666Z"/><path fill="#344F99" d="M239 244h2v2h2v20l5-1 2-18h1c1.577 6.938 1.129 14.637-2.027 21.105-1.098 1.645-1.098 1.645-2.973 3.895l-8-4 1-24Z"/><path fill="#3B53A2" d="m182 242-.938 1.813c-2.834 5.835-3.16 12.42-1.343 18.652.933 2.081 1.817 3.786 3.281 5.535 2.615 1.128 2.615 1.128 5 1l-2 4c-2.625.5-2.625.5-6 0-2.96-2.2-4.57-4.618-6-8-1.037-7.419-.809-13.45 3-20 2.5-3 2.5-3 5-3Z"/><path fill="#324D99" d="m148 289 .375 1.938L149 293l2 1c-5.658 9.896-11.897 18.22-23 22 0-3.188 0-3.188 1-7 1.804-1.453 3.702-2.45 5.734-3.559 5.993-3.812 10.588-9.914 13.266-16.441Z"/><path fill="#7AA760" d="M129 183c3.043 3.652 4.956 7.746 7 12l1 2-2.188 2.063c-3.047 3.03-5.384 6.4-7.812 9.937l-4-1 1-3v2h3l-.484-1.605c-1.653-7.673-1.355-15.517 2.484-22.395Z"/><path fill="#A0A557" d="M405 369c0 4.295-2.064 5.86-4.887 8.938-7.898 7.708-16.546 9.99-27.113 12.062l1-3 7-1 .652-2.398C383 381 383 381 385.566 379.96l2.997-.586c2.934-.53 2.934-.53 5.437-1.375l1-3c2.031-1.352 2.031-1.352 4.5-2.625 2.945-1.415 2.945-1.415 5.5-3.375Z"/><path fill="#8DC058" d="M138 239c2.603 5.495 2.19 11.066 2 17l-2-3-4 2c-2.618-2.282-3.622-4.194-4.625-7.5l-.727-2.344L128 243l-1-3 2.25-.438c2.672-.51 2.672-.51 4.938-1.187C136 238 136 238 138 239Z"/><path fill="#404DAE" d="M155 249h1l.113 3.438c.316 7.75.594 14.427 3.887 21.562.38 1.657.738 3.32 1 5h2l3.496 5.195c1.626 1.951 2.996 2.808 5.254 3.93C175 290 175 290 175.938 292.75L176 295c-10.594-3.726-15.959-11.918-20.751-21.502-2.386-5.087-2.386-5.087-1.249-8.498.228-2.733.417-5.45.563-8.188l.13-2.271c.106-1.847.207-3.694.307-5.541Z"/><path fill="#4D5EA9" d="m205 209-3.438.113c-14.187.57-24.275 3.173-34.562 13.825L165 225h-2l-2 4h-2l-.875 2.75c-.89 2.572-1.84 4.863-3.125 7.25h-2c2.318-9.788 10.247-19.41 18.71-24.691 9.154-5.092 23.415-11.892 33.29-5.309Z"/><path fill="#7B67CA" d="M233 117c3.504-.515 4.93-.042 8 1.813 5.367 5.019 8.002 11.401 8.309 18.683.053 4.177-.089 8.333-.309 12.504h-1l-.227-2.86c-.974-9.518-2.697-19.064-9.773-26.14l.367 1.677c.555 2.564 1.094 5.13 1.633 7.698l.578 2.637c1.26 6.075 1.662 11.79 1.422 17.988h-1l-.304-1.845c-2.608-15.914-2.608-15.914-7.696-31.155v-1Z"/><path fill="#8CB85A" d="M127 168h9l-.813 4.125c-.424 3.526-.424 3.526.86 6.738 1.263 1.43 2.604 2.788 3.953 4.137v2l4 2-1 6h-5l-.375-2.938L137 187l-2-1a102.272 102.272 0 0 1-2-5 748.096 748.096 0 0 0-3.125-6.813l-1.633-3.519L127 168Z"/><path fill="#A98DA0" d="M201 149c6.96.387 11.94 2.634 18 6v1l-2.152.621-2.786.816-2.777.81c-2.225.543-2.225.543-3.285 1.753-2.67.141-5.324.042-8 0l1-11Z"/><path fill="#6FB471" d="m322 213 3 1v2l5 2v2l1.875.313C334 221 334 221 336 224c1.664.674 3.33 1.34 5 2 2.813 1.75 2.813 1.75 5 4 .313 3.25.313 3.25 0 6-3.29-.593-5.09-1.65-7.563-3.875l-1.753-1.555L335 229l-1.715-1.57C332 226 332 226 332 224l-1.875-.938L326 221v-2l-4-2v-4Z"/><path fill="#2F4B9B" d="M201 244c2.813 2.5 2.813 2.5 5 5 2.077.96 2.077.96 4 1l2-1v3h-3v2h-6l-1-3c-3.08-2.116-5.408-2.193-9.063-1.813l-2.597.231c-2.643.657-3.634 1.507-5.34 3.582.182-4.01.58-5.591 3.5-8.438 4.505-2.01 7.813-2.098 12.5-.562Z"/><path fill="#6F64C2" d="M204 368c5.984.406 8.35 1.125 13 5 3.27 1.496 6.64 2.725 10 4 9.773 3.843 9.773 3.843 12 8-5.333-.957-10.144-2.816-15.188-4.75l-2.712-1.016c-6.239-2.378-12.184-5.143-18.1-8.234 2-1 2-1 3-1l-2-2Z"/><path fill="#2F5099" d="m243 277-1 4-1.956.335a2650.83 2650.83 0 0 0-8.794 1.54l-3.078.527-2.969.528-2.73.476c-2.41.579-4.316 1.392-6.473 2.594l.938-1.813c1.164-2.277 1.164-2.277 2.062-5.187 7.75-2.619 15.862-3.506 24-3Z"/><path fill="#77CD5A" d="m118 243 1.813.5c2.3.611 2.3.611 5.187.5 1.671.31 3.339.64 5 1l3 9c-4.116.89-7.78 1-12 1a664.623 664.623 0 0 1-1.5-4.313l-.844-2.425C118 246 118 246 118 243Z"/><path fill="#17448C" d="M295 167h2c-.649 25.73-.649 25.73-5.059 33.98-1.079 2.315-1.342 4.234-1.566 6.77l-.227 2.422L290 212h-1a708.505 708.505 0 0 1-.125-7.063l-.07-3.972C289 196.98 289.842 193.799 291 190a101.4 101.4 0 0 0 .563-5.875c.335-5.023.335-5.023 1.437-6.125.208-1.662.367-3.33.5-5 .389-4.889.389-4.889 1.5-6Z"/><path fill="#84B05B" d="m120 217 2.375 1.063L125 219l2-1c2.533 4.642 4.465 8.652 5 14a446.93 446.93 0 0 1-6-1l-2.25-.25c-1.75-.75-1.75-.75-3-3.125C120 225 120 225 120 222l-2-1 2-4Z"/><path fill="#D5DDF0" d="M196 291c3.736 1.245 4.188 2.634 6 6l2.313-1.5C207 294 207 294 210 294l-7 13-5-1c-.338-1.75-.67-3.5-1-5.25l-.563-2.953C196 295 196 295 196 291Z"/><path fill="#92A06E" d="M178 133h1c-.596 4.869-1.57 9.328-3 14l-1-4c-15.657-2.064-33.565-3.505-48.531 2.223-2.665.839-3.889.745-6.469-.223 4.996-2.325 9.636-3.774 15.063-4.688l2.251-.381c12.724-2.01 25.026-.648 37.686 1.069l3-8Z"/><path fill="#786FB8" d="M230 126c2.7 4.05 4.22 6.833 4.45 11.73l.13 2.682.107 2.775.143 2.811c.225 5.049.225 5.049.17 7.002-1.805 1.805-4.731 1.415-7.188 1.621L226 155l-1 2c-2.864.64-5.669 1.17-8.563 1.625l-2.443.406A942.3 942.3 0 0 1 208 160c1-2 1-2 3.066-2.852l2.496-.773c1.24-.39 1.24-.39 2.504-.79L218 155l-5-2c3.3-1.1 5.366-.685 8.74-.19 2.436.205 4.611.026 7.033-.279l2.412-.295L233 152a18864.165 18864.165 0 0 0-1.201-10.898A926.874 926.874 0 0 0 230 126Z"/><path fill="#67B75F" d="M109 214c2 3 2 3 2 6 2.468-1.152 4.048-2.048 6-4 .7 2.08 1.385 4.164 2.063 6.25l1.16 3.516c.73 3.035.896 4.391-.223 7.234-3 0-3 0-4.625-1.188-1.69-2.226-2.005-4.07-2.375-6.812h-2c-1.193-3.877-2-6.916-2-11Z"/><path fill="#769D60" d="M112 177h1l.805 3.691 1.07 4.871.527 2.424c.813 3.688 1.665 7.311 2.793 10.916C119 202 119 202 118 205l-3 1v6c-4.06-7.383-3.133-16.367-3.063-24.563l.014-3.056c.012-2.46.028-4.92.049-7.381Z"/><path fill="#7253DA" d="m198 141 1 2-1 3 4-3-2 17h7v1l-13 3c.474-3.647.954-7.292 1.438-10.938l.408-3.154.4-2.998.365-2.777C197 142 197 142 198 141Z"/><path fill="#7B5DDD" d="M291 160c4.587-.073 9.17-.09 13.75.188l2.11.105c3.334 1.102 4.913 3.036 7.14 5.707.492 3.071.492 3.071.305 6.48l-.172 3.78-.258 3.928-.188 3.869c-.36 7.003-.901 13.975-1.687 20.943h-1c-.206-26.751-.206-26.751 1-40-4.134-1.945-7.77-2.37-12.313-2.625l-3.8-.227L293 162l-1 2-1-4Z"/><path fill="#515BB3" d="M198 248c2.375 1.375 2.375 1.375 4 3v2l-2.688-1c-3.06-.924-5.162-1.438-8.312-1-2.491 3.737-2.207 5.745-2.125 10.188l.055 3.855L189 268h-2l-.875-2.75c-.97-3.112-.97-3.112-2.25-5.25-1.213-2.772-1.135-5.011-.875-8l2-2h2l2.25-1c3.177-1.155 5.391-1.357 8.75-1Z"/><path fill="#AAAC66" d="M234 317c4.029 1.343 4.675 3.513 7 7a259.396 259.396 0 0 0 5 4v2l1.688.625c3.158 1.878 4.979 4.563 7.312 7.375l3 1c1.387 2.066 1.387 2.066 2.688 4.563l1.324 2.503L263 348c-3.538-1.51-5.834-3.576-8.547-6.281l-2.558-2.551-2.645-2.668-2.691-2.668-2.543-2.55-2.335-2.343C240 327 240 327 240 325h-2l-4-8Z"/><path fill="#97B469" d="M396 290c4.004 1.335 4.945 3.8 6.875 7.313l1.063 1.907c4.874 8.905 8.566 17.69 10.062 27.78-3.805-2.537-4.008-4.794-5-9l-1.625-6.438c-.46-1.853-.918-3.707-1.375-5.562h-2l-1 3c-.793-2.041-1.585-4.083-2.375-6.125l-1.336-3.445A221.135 221.135 0 0 1 396 290Z"/><path fill="#634ED3" d="M311 247h1c.34 3.812.67 7.625 1 11.438l.29 3.24c.524 6.135.814 12.165.71 18.322h2l1 26c-1.936-3.871-2.504-6.355-3.07-10.582l-.261-1.95a786.442 786.442 0 0 1-.794-6.28l-.272-2.154C311.018 272.32 310.54 259.814 311 247Z"/><path fill="#92A96E" d="M118 202h4l2 6h2c1.171 2.456 2.337 4.915 3.5 7.375l1.012 2.117C133 222.773 133 222.773 133 225l2.063-1c3.445-1.173 6.321-1.142 9.937-1v2l-2.371.367-3.066.508-3.06.492L134 227l-1 2-1-3h-2l-.779-1.665a4982.603 4982.603 0 0 0-3.534-7.523l-1.224-2.619c-1.976-4.193-3.96-8.28-6.463-12.193Z"/><path fill="#9BC856" d="M119 272h1v9c2.947 1.158 2.947 1.158 6 1h3l2.063-.563C133 281 133 281 135 282c-1 3-1 3-4.125 4.688-4.514 1.76-8.75 2.184-13.313.312L116 286c.596-4.869 1.57-9.328 3-14Z"/><path fill="#F7F8F4" d="M143 225c1.807 1.807 1.173 4.504 1.188 6.938l.042 3.277C144 238 144 238 142 240l-9-13c3.99-1.995 5.69-2.287 10-2Z"/><path fill="#A3B558" d="M136 168c2 1.25 2 1.25 4 3v4l2 1c1.75 3.313 1.75 3.313 3 7-.813 2.438-.813 2.438-2 4a279.297 279.297 0 0 1-5-5l-2.375-2.313c-2.385-3.944-1.588-6.242-.625-10.687l1-1Z"/><path fill="#977AB3" d="m183 143 12 3 1-3c.492 14.377.492 14.377-2 21-3.855 3.037-9.287 2.14-14 2v-17l2-1-1 17 4.313-1.5c2.818-.98 4.672-1.5 7.687-1.5.09-1.247.09-1.247.184-2.52l.254-3.292c.08-1.08.162-2.158.246-3.27C194 150 194 150 195 147l-3.188-.438A142.46 142.46 0 0 1 183 145l-1 2 1-4Z"/><path fill="#5A8F65" d="M112 165h1v34c-4.346-4.346-3.668-8.256-3.875-14.188l-.18-3.08c-.263-6.382.37-10.924 3.055-16.732Z"/><path fill="#8E78E8" d="M240 146h1v5l8-1 1-4v5l12 1c-2.6 2.6-4.927 3.068-8.438 4.125l-3.496 1.07C247 158 247 158 244 158l-.875-2.438c-.858-2.695-.858-2.695-3.125-3.562v-6Z"/><path fill="#E0E6F4" d="M231 265c1.773.62 3.543 1.246 5.313 1.875l2.988 1.055C242 269 242 269 245 271c-.313 1.875-.313 1.875-1 4-3.54 2.36-5.991 2.586-10.188 3.125l-3.855.508L227 279c1.624-3.247 4.754-3.702 8-5v-4c-1.96-1.637-1.96-1.637-4-3v-2Z"/><path fill="#3B57A5" d="M188 324c3.962 4.235 5.432 8.547 7 14-5.48-1.545-10.114-4.155-15-7 2-2 2-2 4-3a180.655 180.655 0 0 0 4-4Z"/><path fill="#445B80" d="M223 286c3.824-.462 7.44-.892 10.878 1.074 1.775 1.539 3.389 3.15 4.997 4.863 1.196 1.197 2.396 2.391 3.598 3.583l1.781 1.791c3.351 3.242 7.05 6.033 10.734 8.884C257 308 257 308 258 311c-3.618-1.546-6.082-3.758-8.938-6.438-2.56-2.4-4.85-4.437-7.878-6.222L239 297v-2l-3-1a141.4 141.4 0 0 1-5-5c-.983-1.206-.983-1.206-2.848-1.098L222 288l1-2Z"/><path fill="#4156A0" d="m231 246 2 1c.027 1.73.047 3.458.063 5.188l.035 2.917c-.093 2.75-.477 5.22-1.098 7.895l6 3-1 2a1535.49 1535.49 0 0 1-7.938-3.375l-2.287-.96c-5.662-2.438-5.662-2.438-6.775-4.665h3v-2h2v-6h1l1 7 4-1v-11Z"/><path fill="#A9A656" d="M302 342c4.496 1.372 8.47 3.187 12.625 5.375 6.263 3.233 12.605 5.629 19.375 7.625v1c-6.182.331-10.355-.59-16-3a526.137 526.137 0 0 0-4.5-1.688L310 350v-2l-2.313-.75c-2.923-1.36-3.987-2.566-5.687-5.25Z"/><path fill="#A4A26E" d="M88 258c2.231 3.347 3.385 6.716 4.625 10.5l.695 2.05c.973 2.936 1.68 5.337 1.68 8.45h2c.315.748.63 1.495.953 2.266l1.297 2.984 1.266 2.953c1.34 2.887 1.34 2.887 3.718 4.906L106 294c-.25 2.25-.25 2.25-1 4-6.04-7.803-10.106-16.005-14-25l-1.105-2.492c-1.82-4.391-2.186-7.845-1.895-12.508Z"/><path fill="#C1AB52" d="M274 326c6.263 2.147 10.07 5.759 14 11l-1 1 6 3v2h4v2c-5.685-1.646-10.767-4.29-16-7v-2l-3-1c-.73-1.977-1.394-3.98-2-6l-2-3Z"/><path fill="#8BAC64" d="M304 342c3.722.59 6.564 1.655 9.875 3.438 4 2.062 7.76 3.413 12.125 4.562 4.593 1.589 9.16 3.249 13.66 5.086 2.434.95 4.77 1.473 7.34 1.914v1c-13.341-.3-33.184-6.184-43-16Z"/><path fill="#619780" d="M314 206c4.413 1.476 7.77 3.89 11.375 6.75l1.727 1.35A266.568 266.568 0 0 1 339 224l-3 1-.75-1.938c-1.038-2.237-1.038-2.237-3.188-2.625L330 220c-1.438-1.313-1.438-1.313-3-3a347.688 347.688 0 0 0-5-4l-1 3c-2.498-1.498-4.86-3.016-7-5-.438-2.813-.438-2.813 0-5Z"/><path fill="#805BEA" d="M235 152h1c.135 2.27.232 4.54.313 6.813l.175 3.832c-.16 1.107-.322 2.214-.488 3.355-2.488 1.734-2.488 1.734-5 3-.565 3.884-.575 6.066 1.5 9.438L234 180c-2.438-.375-2.438-.375-5-1-1.605-3.21-1.485-6.517-1-10 3-5.5 3-5.5 6-7 .407-2.322.744-4.657 1-7l-10 1 1-2c1.813-.379 1.813-.379 4-.563 2.79-.064 2.79-.064 5-1.437Z"/><path fill="#AEB05E" d="m86 186 2 1-.875 3.5c-3.478 16.15-3.36 32.046-3.125 48.5h-1c-1.297-7.007-1.221-14.017-1.25-21.125l-.063-3.766C81.653 205.662 82.764 198.135 85 190a738.12 738.12 0 0 0 1-4Z"/><path fill="#AFB65C" d="m331 356 3.93.402c7.727.773 15.461 1.461 23.195 2.16A84573.096 84573.096 0 0 1 374 360v1c-13.44 2.24-31.128 2.914-43-5Z"/><path fill="#96915D" d="m129 145-1.61 1.25c-7.605 6.218-10.362 12.285-12.39 21.75h-1c.48-5.569 1.3-10.67 3-16l-2-2 1.938-.813c2.393-1.074 2.393-1.074 3.062-4.187 6.75-1.125 6.75-1.125 9 0Z"/><path fill="#614ED3" d="m180 143-1 37h-1l-1-23-2 3c.28-2.647.574-5.292.875-7.938l.238-2.287c.226-1.934.55-3.857.887-5.775 2-1 2-1 3-1Z"/><path fill="#324C9A" d="M189 253c5.838 8.757 4.239 22.783 4 33h-1c-.674-4.207-1.338-8.416-2-12.625l-.578-3.605-.547-3.497-.508-3.205c-.367-3.066-.502-5.983-.367-9.068l1-1Z"/><path fill="#655FBE" d="M274 152c4.568.804 8.583 1.614 12.563 4.063 6.095 3.353 13.653 2.772 20.437 2.937-5.186 3.458-11.943 2.75-18 2-11.77-3.03-11.77-3.03-14.355-7.172L274 152Z"/><path fill="#7058E0" d="M259 346h1c.828 7.973 1.155 15.926 1.25 23.938l.064 2.725c.028 5.237-.452 8.766-3.314 13.337l-3-2 1.468-1.51c2.076-3.374 2.01-6.47 2.044-10.318l.054-2.27c.054-2.384.088-4.768.122-7.152.033-1.62.067-3.24.103-4.86.085-3.963.152-7.926.209-11.89Z"/><path fill="#9EA875" d="M273 323c3.495.3 4.785.78 7.285 3.332 2.843 2.794 5.43 4.358 8.965 6.168l3.434 1.785L296 336a655.1 655.1 0 0 1 5.313 2.938l2.175 1.214L305 341c-3 1-3 1-4.902.258l-2.036-1.133c-2.683-1.479-5.057-2.493-8.062-3.125v-2l-2.105-.75c-3.335-1.44-6.183-3.24-9.207-5.25l-3.239-2.125L273 325v-2Z"/><path fill="#AD9E7A" d="M106 298c4.444 1.133 8.264 2.283 12 5v2c4.648 2.4 8.91 2.2 14 2v-2l5-1c-3.638 3.889-6.263 5.157-11.563 5.438-6.257-.055-10.587-2.659-15.437-6.438-2.625-2.875-2.625-2.875-4-5Z"/><path fill="#8CBB59" d="m99 167 2 2a393.47 393.47 0 0 1-2.75 4.875c-.51.905-1.02 1.81-1.547 2.742-1.806 2.527-2.958 3.123-5.703 4.383-1.767 3.033-1.767 3.033-3 6h-1v-7l3-1c1.056-1.733 1.056-1.733 1.875-3.813 1.743-3.763 3.621-5.851 7.125-8.187Z"/><path fill="#40578B" d="m148 289 .375 1.938L149 293l2 1c-2.182 4.5-5.3 7.201-9.063 10.352A70.191 70.191 0 0 0 137 309v-2l-2-1 1.574-1.434c4.995-4.735 8.442-9.368 11.426-15.566Z"/><path fill="#5753C1" d="M241 154h2l.113 2.082.2 2.73.175 2.708c.284 2.529.284 2.529 2.016 3.972 2.15 2.166 2.03 3.818 2.121 6.82-.062 3.33-.157 5.076-2.195 7.743-1.746 1.477-3.475 2.763-5.43 3.945l-1-3 2.438-1.688c2.679-2.067 2.679-2.067 3.5-4.75.074-3.04-.555-4.869-1.938-7.562l-2-2c-.195-2.602-.195-2.602-.125-5.625l.055-3.04L241 154Z"/><path fill="#725FD0" d="M121 328h1l.625 3.75c.873 3.505 1.27 4.162 4.188 6.625 2.71 1.381 5.36 2.518 8.187 3.625l10 4c-3.929 1.47-7.113.571-11.125-.313l-3.758-.8C127 344 127 344 125 342h2v-2l-1.875-.813C123 338 123 338 121 335a97.813 97.813 0 0 1 0-7Z"/><path fill="#B492A0" d="M174 149h1a447.41 447.41 0 0 1-.188 9.313l-.017 2.67c-.083 2.433-.227 4.649-.795 7.017-3.06 2.778-6.536 3.612-10.5 4.625l-2.781.727c-2.564.611-5.13 1.151-7.719 1.648l3-1v-2c4.799-2.24 9.829-3.056 15-4l.148-2.887.227-3.8c.07-1.242.14-2.483.21-3.762.38-3.244 1.035-5.617 2.415-8.551Z"/><path fill="#7B66CA" d="M323 326c2.072 3.649 3.076 7.532 4.125 11.563.182.672.364 1.344.55 2.037.764 2.887 1.325 5.4 1.325 8.4h-5c-2.48-14.597-2.48-14.597-1-22Z"/><path fill="#C7AE52" d="M184 146c6.75-.125 6.75-.125 9 1v7l-9-1v-7Z"/><path fill="#525CA9" d="M154 220h2c-1.092 3.177-2.485 5.755-4.375 8.5-3.474 5.36-4.957 11.389-6.625 17.5l-2-1c.908-9.412 4.195-18.195 11-25Z"/><path fill="#91A171" d="M268 352h2v2l2.18.285c3.272.83 5.234 2.159 7.945 4.152l2.57 1.872L285 362c2.918 1.945 4.625 2.453 8 3v3h2v2c-4.597-1.33-8.119-3.178-12.063-5.875l-3.035-2.055a106.478 106.478 0 0 1-5.586-4.265C272.05 355.83 272.05 355.83 269 355l-1-3Z"/><path fill="#2B4E94" d="m207 298 2 4c-1.538 4.101-3.486 7.338-7 10-2.125-.063-2.125-.063-4-1-2.152-3.228-2.2-4.284-2-8l1 3h6l4-8Z"/><path fill="#79B35D" d="M122 167c3.9.866 5.584 1.39 7.875 4.75 1.15 3.324 1.374 5.763 1.125 9.25l-3 1c-.817-1.748-1.628-3.499-2.438-5.25l-1.37-2.953c-.976-2.29-1.69-4.37-2.192-6.797Z"/><path fill="#75B75E" d="M112 161c-.412 4.97-.796 9.445-3 14h-1l-1-6c-3.375.547-5.082 1.055-8 3 2.114-4.932 7.052-11 13-11Z"/><path fill="#5C55C5" d="M181 167h1l.078 2.047c.363 5.712.773 7.933 4.922 11.953 1.229 4.28 1.49 7.79-.188 11.938-1.896 2.158-3.067 3.23-5.812 4.062-2.25-.375-2.25-.375-4-1l2.875-1.313c3.325-1.48 3.325-1.48 5.125-4.687.5-2.958.5-2.958 0-6l-2.008-1.77c-2.723-3.049-2.403-4.963-2.242-8.98l.11-3.547L181 167Z"/><path fill="#4C5BAC" d="M160 281h2v2h4a141.4 141.4 0 0 1 5 5l2.25 1c1.75 1 1.75 1 2.5 3.625L176 295c-4.235-1.41-6.964-3.442-10.25-6.438l-2.64-2.37C161 284 161 284 160 281Z"/><path fill="#6454D3" d="M291 313h1c2.296 14.597 2.296 14.597 2 22l-4-2c-.029-3.146-.047-6.292-.063-9.438l-.025-2.72-.01-2.588-.016-2.396C290 314 290 314 291 313Z"/><path fill="#4D63A1" d="M193 274h1c.508 3.353 1.005 6.708 1.5 10.063l.434 2.857c.744 5.087 1.237 9.939 1.066 15.08-3.05-3.05-2.44-6.396-2.656-10.566L194 289l-2-1-1 3-2-1 .563-1.875c.674-2.167.674-2.167-.563-4.125h3l1-10Z"/><path fill="#7E6DBF" d="M297 372c0 3 0 3-2.313 5.375-6.575 5.145-14.597 7.946-22.687 9.625v-2c1.79-.67 3.582-1.336 5.375-2l3.023-1.125C283 381 283 381 285 381v-2a101.051 101.051 0 0 1 6-3.625l3.375-1.914L297 372Z"/><path fill="#7154E3" d="M180 167h1v13l4 2c1.444 2.889 1.377 4.796 1 8-2 2.938-2 2.938-5 5-2.888.117-5.137-.37-8-1v-1l3.875-.375c3.473-.315 3.473-.315 6.125-2.625.5-2.915.5-2.915 0-6l-2.04-1.773C179 180 179 180 178.829 176.766l.422-3.516.39-3.547c.12-.892.238-1.784.36-2.703Z"/><path fill="#BDB458" d="M202 151h7v2l5 1c-4.273 2.849-6.782 4.29-12 4v-7Z"/><path fill="#6B66B7" d="M204 368c7.231.368 7.231.368 10.813 3.313 1.787 2.195 3.558 4.372 5.187 6.687a95.536 95.536 0 0 1-17-7c2-1 2-1 3-1l-2-2Z"/><path fill="#7B9B67" d="M127 195h2c2.554 4.316 2.554 4.316 3 7-1.233 2.73-2.965 4.82-5 7l-4-1 1-3v2h3l-.254-2.117-.308-2.758-.317-2.742C126 197 126 197 127 195Z"/><path fill="#5B6EA9" d="m205 209-3.438.113c-11.096.431-11.096.431-21.562 3.887-1.327.358-2.66.698-4 1 1-3 1-3 2.637-3.914 7.87-2.728 18.968-6.016 26.363-1.086Z"/><path fill="#8864D3" d="M171 171c-5.597 4.313-10.455 5.718-17.46 6.445-2.887.323-2.887.323-4.54 3.555h-2c.959-2.379 1.601-3.74 3.777-5.16 16.292-6.806 16.292-6.806 20.223-4.84Z"/><path fill="#82AE5C" d="m110 158 2 1c-1.153 3.458-1.805 3.806-4.813 5.625-.687.425-1.374.85-2.082 1.29-2.072 1.068-3.804 1.728-6.105 2.085l-2-1 8-8 1 2h2l1-2 1-1Z"/><path fill="#D0B05E" d="M136 300h2v4l-6 1v2c-5.562.915-9.676 1.32-15-1l1-2 2.414.07c7.981.168 7.981.168 15.586-2.07v-2Z"/><path fill="#4157A1" d="M201 244v1l-6 1v2l-1.68.586-2.195.789-2.18.773c-2.127.79-2.127.79-3.945 2.852.182-4.01.58-5.591 3.5-8.438 4.54-2.026 7.732-1.537 12.5-.562Z"/><path fill="#7D60D6" d="M206 105c1.583-.027 3.167-.046 4.75-.063l2.672-.035c2.36.09 4.323.429 6.578 1.098v3h2c-1.714 4.798-5.614 6.807-10 9 1.27-3.914 2.512-5.79 6-8l-2-1v-2l-10-1v-1Z"/><path fill="#64937A" d="M346 231c8.079 4.429 14.338 11.829 20 19-4 0-4 0-5.781-1.574l-1.719-2.113-1.836-2.215a482.534 482.534 0 0 1-3.789-4.848c-1.868-2.396-1.868-2.396-4.625-4.438L346 233v-2Z"/><path fill="#B6B264" d="M142 169c4.97.412 9.445.796 14 3v2h-3v2l-2.313 1.188c-3.663 2.47-4.214 4.704-5.687 8.812-1-3-1-3 .188-5.875 1.721-2.969 3.588-5.518 5.812-8.125l-9-2v-1Z"/><path fill="#ACA470" d="M230 287c3.425 2.074 5.706 4.118 7 8h-2l-1.75-1.938C229.828 289.926 226.495 290 222 290l1 10c-3-4-3-4-3.438-7.063.438-2.937.438-2.937 2.063-4.812 3.15-1.492 4.917-1.678 8.375-1.125Z"/><path fill="#8368C8" d="m213 152 13 2-1 3-17 3c1-2 1-2 3.066-2.852l2.496-.773c.827-.26 1.653-.52 2.504-.79L218 155l-5-2v-1Z"/><path fill="#8E9E75" d="M295 370h4v3l3.188-.25c4.36.286 5.812 1.16 8.812 4.25v2c-3.09-1.03-6.12-2.05-9.125-3.313-2.893-1.04-2.893-1.04-5.25.688L295 378l-2-1 2-1.375 2-1.625v-2l-2-2Z"/><path fill="#274695" d="M239 244h2v2h2v15l-3-1-1-16Z"/><path fill="#3D50A4" d="m168 229 2 1-1.207 1.469c-3.702 4.683-5.966 8.849-7.793 14.531h-3c-1-3-1-3 .04-5.086 3.035-4.382 6.016-8.318 9.96-11.914Z"/><path fill="#B5C0DE" d="m197 299 2 1c2.098-.4 2.098-.4 4-1 1.125 2.313 1.125 2.313 2 5l-2 3-5-1-1-7Z"/><path fill="#70C45B" d="M105.813 168.25 108 169v6h-9l-1-3c4.308-4.062 4.308-4.062 7.813-3.75Z"/><path fill="#6C51DE" d="M263 210c3.383 4.511 3.383 4.511 3.25 8.125l-.078 2.348A259.356 259.356 0 0 1 265 233h-1l-1-6h-1l1-17Z"/><path fill="#664ED7" d="m192 111 2 1c-.539 3.877-1.561 5.976-4 9a87.796 87.796 0 0 0-2 4c-1.507-4.385-.48-7.191 1.113-11.328C190 112 190 112 192 111Z"/><path fill="#A0C555" d="m138 266 3 1c.67 6.44-1.246 9.838-5 15-1.27-3.81-.52-5.816.438-9.688l.87-3.574L138 266Z"/><path fill="#CED6ED" d="M193.563 249.938 196 250v2l3 2-1 3-5 1-1-3-2 1a99.984 99.984 0 0 1 0-5c1-1 1-1 3.563-1.063Z"/><path fill="#7572CD" d="m184 197 2 1-1 1c3.848 1.18 7.758 1.332 11.75 1.563l2.113.13c1.712.106 3.425.207 5.137.307v1l-1.74.076c-2.629.117-5.257.24-7.885.362l-2.738.119c-4.62.219-9.089.544-13.637 1.443l6-7Z"/><path fill="#7F5AEA" d="M169 182h2l-.195 5.957c.062 2.357.062 2.357 2.195 5.043 1.964.577 1.964.577 4.125.688L181 194l-1 2c-6.338.366-6.338.366-9.375-1.313-2.546-2.643-2.625-4.686-2.75-8.312C168 183 168 183 169 182Z"/><path fill="#7A66C5" d="M187 130c1 2 1 2 .328 4.39-1.889 5.01-3.78 9.896-6.328 14.61h-1c.591-4.828 1.348-9.412 3-14l3-1c.733-2.015.733-2.015 1-4Z"/><path fill="#ABA858" d="M293 365c1.938.375 1.938.375 4 1l1 2a135.484 135.484 0 0 0 6.563 3.125l3.628 1.633L311 374c-1.938.563-1.938.563-4 1l-1-1a235.648 235.648 0 0 0-7-1v-3h-4v-2h-2v-3Z"/><path fill="#94A37A" d="M128 219h3l2 6 2.063-1c3.445-1.173 6.321-1.142 9.937-1v2l-2.371.367-3.066.508-3.06.492L134 227l-1 2-1-3h-2l-2-7Z"/><path fill="#649763" d="M111 181h1c.956 3.998 1.104 7.708 1.063 11.813l-.028 3.519L113 199c-1.484-1.09-1.484-1.09-3-3-.328-3.066-.328-3.066-.25-6.563.015-1.156.03-2.312.047-3.503C110 183 110 183 111 181Z"/><path fill="#9FB860" d="M403 341h1c-.07 3.472-.25 6.073-2.484 8.836-3.357 3.056-3.357 3.056-5.516 4.164-2.23-.344-2.23-.344-4-1h2v-2a319.28 319.28 0 0 1 4.469-3.625c2.046-1.837 3.228-3.975 4.531-6.375Z"/><path fill="#5C907B" d="M307 342c4.715.822 9.235 2.193 13.813 3.563l2.388.708c1.934.575 3.866 1.152 5.799 1.729l-2 2c-7.537-.219-13.767-2.968-20-7v-1Z"/><path fill="#6872BA" d="m170 207 2 1a878.646 878.646 0 0 1-4.313 3.438l-2.425 1.933C163 215 163 215 160 216c-1.209 2-1.209 2-2 4h-3c1.524-4.038 4.023-5.75 7.5-8.188l2.969-2.105C168 208 168 208 170 207Z"/><path fill="#6F75B3" d="M313 199h1c1.125 6.75 1.125 6.75 0 9-.154 2.104-.25 4.212-.316 6.32l-.127 3.809-.12 3.996-.13 4.02c-.107 3.285-.209 6.57-.307 9.855h-1c-.025-4.305-.043-8.61-.055-12.915-.005-1.463-.012-2.925-.02-4.388-.013-2.11-.018-4.22-.023-6.33l-.016-3.84c.106-3.274.49-6.316 1.114-9.527Z"/><path fill="#8F889C" d="M178 133h1c-.596 4.869-1.57 9.328-3 14l-1-4-16-2v-1c5.458-.111 10.615.083 16 1l3-8Z"/><path fill="#7A62CC" d="M189 112c1 3 1 3 .398 4.902-2.213 4.402-4.193 7.294-8.398 10.098.56-3.953 1.722-6.486 4-9.75l1.625-2.36C188 113 188 113 189 112Z"/><path fill="#7D6CC1" d="m214 106 2 2-3.875.188c-5.7.598-10.194 3.022-15.125 5.812v-3c5.845-3.788 9.972-5.863 17-5Z"/><path fill="#BEAC53" d="M260 343c3.645 1.364 6.912 3.001 10.25 5l2.64 1.563C275 351 275 351 276 353c-3.627-.584-6.468-1.547-9.688-3.313l-2.324-1.238c-2.217-1.616-2.983-2.928-3.988-5.449Z"/><path fill="#7E9E73" d="M406 306c3.486 2.706 4.45 6.46 5.75 10.5l.707 2.05c1.67 5.07 1.67 5.07.543 8.45-2.657-2.657-3.11-5.457-4-9l-.793-3.129A1914.24 1914.24 0 0 1 406 306Z"/><path fill="#C2AA67" d="M148 290c-1.52 5.405-5.274 8.985-9 13-.676-1.738-.676-1.738-1-4 1.145-2.105 1.145-2.105 2.813-4.188l1.644-2.105c1.838-2.034 2.784-2.707 5.543-2.707Z"/><path fill="#C6CFE8" d="m240 269 5 2c-.313 1.875-.313 1.875-1 4-3 2-3 2-5.188 1.625L237 276l1-5h2v-2Z"/><path fill="#6A6FBE" d="m195.625 235.813 3.477.019C202 236 202 236 204 237v2l-2.379-.035c-5.658-.049-11.05.022-16.621 1.035v-2c3.558-2.217 6.485-2.239 10.625-2.188Z"/><path fill="#3C44B0" d="M287 189h1a1541.5 1541.5 0 0 1-.375 10.75c-.03 1.016-.062 2.032-.094 3.078l-.117 2.969-.095 2.73c-.33 2.561-1.029 4.254-2.319 6.473-.879-6.152-.879-6.152-1-8l1-1c.211-2.483.376-4.95.5-7.438.366-7.293.366-7.293 1.5-9.562Z"/><path fill="#684EDA" d="M198 149h1v11l-4 1c-.293-4.989-.059-7.962 3-12Z"/><path fill="#4254A9" d="M174 213c2.16.934 2.16.934 4 2l-1.54.918c-4.486 2.731-8.507 5.623-12.46 9.082a174.184 174.184 0 0 1 2-4l1.313-2.563c1.964-2.838 3.5-4.116 6.687-5.437Z"/><path fill="#649763" d="M125 194h1l1 13h-3v-2h-2l-2-7 3 3 2-7Z"/><path fill="#7B60D6" d="M165 354c5.917 1.164 11.447 2.62 17 5l1 2h-6v-2l-2.117-.586-2.758-.789-2.742-.773C167 356 167 356 165 354Z"/><path fill="#8FAF61" d="M138 239c2 3 2 3 2 5h2l1-2-2 20h-1l-.184-3.508-.254-4.617-.119-2.305c-.238-4.255-.645-8.374-1.443-12.57Z"/><path fill="#B1A669" d="M106 298c4.48 1.142 8.145 2.43 12 5l-1 3c-5.667-1.318-7.664-3.487-11-8Z"/><path fill="#816CC5" d="M196 114c0 3.358-.395 3.845-2.375 6.375-2.074 2.767-3.522 5.317-4.625 8.625-1.336-3.036-.916-4.262.125-7.5 1.912-3.57 3.557-5.258 6.875-7.5Z"/><path fill="#53946F" d="M325 349h12l-2 2 5 1v1c-5.842.35-9.853.167-15-3v-1Z"/><path fill="#6A888A" d="M323 212c3.707 1.62 6.573 3.939 9.688 6.5l2.949 2.406C338 223 338 223 339 225c-1.938-.313-1.938-.313-4-1l-1-3a139.724 139.724 0 0 0-4-1c-1.5-1.313-1.5-1.313-3-3l-2.188-2.125C323 213 323 213 323 212Z"/><path fill="#906FEF" d="M235 155v7l-2 1-1-6-11 2-1-2c1.561-.34 3.124-.671 4.688-1l2.636-.563c2.613-.427 5.034-.513 7.676-.437Z"/><path fill="#B1A380" d="M209 151c3.669.706 6.705 2.277 10 4v1c-4.12 1.292-7.668 2.263-12 2 1.255-2.51 2.5-2.871 5-4l-3-1v-2Z"/><path fill="#ACA874" d="M245 301c1.273.934 2.543 1.873 3.813 2.813l2.144 1.582c1.83 1.438 3.4 2.963 5.043 4.605 1.646 1.034 3.31 2.04 5 3-4.421 0-6.163-.226-9.5-3.313L249 307l-2.313-2.188C245 303 245 303 245 301Z"/><path fill="#BABC85" d="M137 233c5.785 4.43 5.785 4.43 6.875 7.313L144 242h-2v2h-2a980.736 980.736 0 0 1-1.5-4.375l-.844-2.46C137 235 137 235 137 233Z"/><path fill="#6A4EDC" d="m210 102-1 3h-3v2l-7 2 2-4h2v-2c4.75-1 4.75-1 7-1Z"/><path fill="#ABAA61" d="M263 348c2.49.461 4.142 1.088 6.313 2.438 3.132 1.82 6.188 2.67 9.687 3.562v1l-9-1v-2l-2.375-.313C265 351 265 351 263 348Z"/><path fill="#3D44B2" d="M269 154c6.625.75 6.625.75 10 3l-7-1v16h-1l-.184-3.43-.253-4.445-.12-2.262c-.159-4.063-.159-4.063-1.443-7.863Z"/><path fill="#3D5386" d="M223 286c4.294-.626 7.648-.886 11.379 1.559 1.963 1.745 3.826 3.524 5.621 5.441l-2 1-1.469-1.313c-3.617-3.004-6.193-5.114-11.031-5.062L222 288l1-2Z"/><path fill="#6F9F62" d="m116 169 1.125 1.375c2.418 2.095 4.83 2.745 7.875 3.625-3.325 1.108-5.622.845-9 0v6h-1a271.487 271.487 0 0 1-.625-4.375l-.352-2.46L114 171l2-2Z"/><path fill="#8969DC" d="M240 146h1v5l8-1 1-4-1 7c-6.75.125-6.75.125-9-1v-6Z"/><path fill="#979F73" d="M273 323c4.855.416 6.804 2.459 10 6l2 2c-4.846-.44-8.481-2.745-12-6v-2Z"/><path fill="#845DE1" d="M199 154h1v6h7v1l-13 3v-3l4-1 1-6Z"/><path fill="#989E72" d="M98 286h2c1.026 1.65 2.023 3.32 3 5l1.75 1.563L106 294c-.422 2.09-.422 2.09-1 4a971.577 971.577 0 0 1-3.5-4.875l-1.969-2.742C98 288 98 288 98 286Z"/><path fill="#334EA2" d="M239 247h1l.148 2.555.227 3.32c.07 1.09.14 2.181.21 3.305.148 2.95.148 2.95 2.415 4.82-.375 2.125-.375 2.125-1 4l-3-2a70.101 70.101 0 0 1-.188-8.125l.042-2.285c.035-1.864.089-3.727.146-5.59Z"/><path fill="#98B05C" d="M93 173c1 3 1 3-.215 5.7l-1.722 2.988-1.715 3.011L88 187h-1v-7l3-1c1.709-3 1.709-3 3-6Z"/><path fill="#7567C3" d="M274 152c1.459.31 2.917.622 4.375.938l2.46.527C283 154 283 154 285 155v2c-1.46-.06-2.918-.149-4.375-.25l-2.46-.14C276 156 276 156 274.71 153.952L274 152Z"/><path fill="#AEAB69" d="M88 258c1.904 2.856 2.695 4.931 3.625 8.188l.79 2.73L93 271l-2 1c-2.434-4.97-3.346-8.346-3-14Z"/><path fill="#4F64A7" d="M188 208v2c-1.249.482-2.5.96-3.75 1.438l-2.11.808c-2.03.715-4.044 1.268-6.14 1.754 1-3 1-3 2.742-3.95.704-.243 1.408-.486 2.133-.738.699-.25 1.397-.502 2.117-.761C185 208 185 208 188 208Z"/><path fill="#5252BA" d="M181 167h1l.113 2.117.2 2.758.175 2.742c.3 2.745.3 2.745 3.512 4.383v3l-5-2v-13Z"/><path fill="#90AF63" d="M118 202h4c3.429 7.286 3.429 7.286 3 12-1.682-2.522-3.165-5.036-4.625-7.688l-1.352-2.449L118 202Z"/><path fill="#6753D7" d="M180 167h1v13l4 2-2 2c-2.016-1.578-2.016-1.578-4-4-.172-3.234-.172-3.234.25-6.75l.39-3.547c.12-.892.238-1.784.36-2.703Z"/><path fill="#95CC57" d="M91 180c1.188 3.43.802 5.378-.438 8.75l-.87 2.422L89 193h-1c-.316-5.26.334-8.446 3-13Z"/><path fill="#956FC3" d="M194 162v2c-3.508 1.604-6.144 2.22-10 2 2-3 2-3 3.875-3.688C190 162 190 162 194 162Z"/><path fill="#C3A48A" d="M174 149h1c.043 2 .04 4 0 6l-1 1a123.141 123.141 0 0 0-.563 5.563l-.253 3.066L173 167h-1a572.448 572.448 0 0 1-.125-6.188l-.07-3.48c.19-3.25.801-5.419 2.195-8.332Z"/><path fill="#6D50DB" d="m204 127 1 2-1 2h2c-1 2-1 2-4 4-1.213 3.054-1.213 3.054-2 6-1-2-1-2-.512-4.059l.825-2.379.8-2.37C202 130 202 130 204 127Z"/><path fill="#7761CE" d="M297 372c0 3 0 3-1.75 5.188C293 379 293 379 289 379c1.464-4.392 3.978-4.88 8-7Z"/><path fill="#71807D" d="M148 273c2.328 2.328 3.135 3.827 4 7-.875 3.313-.875 3.313-2 6h-1c-1.102-4.41-1.077-8.484-1-13Z"/><path fill="#6C9080" d="M346 231c4.827 2.413 7.7 5.86 11 10-3 0-3 0-4.535-1.496l-1.527-1.941c-2.105-2.722-2.105-2.722-4.938-4.563v-2Z"/><path fill="#959F6C" d="M234 317c3.482 1.16 3.888 1.91 5.75 4.938l1.36 2.152.89 1.91-1 2-1-3h-2l-4-8Z"/><path fill="#8AA86F" d="M396 290c4 1.333 4.838 3.496 7 7l-1 2c-3-1-3-1-4.688-3.938C396 292 396 292 396 290Z"/><path fill="#395597" d="M217 281h2l-3 6h-2l-1 4-2-1c.81-1.314 1.624-2.626 2.438-3.938l1.37-2.214C216 282 216 282 217 281Z"/><path fill="#765CD8" d="M216 374c5.538.615 5.538.615 7.875 2.563L225 378c-2.25.25-2.25.25-5 0-2.313-2-2.313-2-4-4Z"/><path fill="#455AA5" d="m177 231 2 1-1 3h-2v2l-4-1 5-5Z"/><path fill="#A5B763" d="M134 229c3 2 3 2 3.512 3.945L138 239c-2.834-3.203-3.52-5.78-4-10Z"/><path fill="#BBB454" d="M311 375c4.314.48 6.166 1.746 9 5h-4v-2l-5-2v-1Z"/><path fill="#4A52B6" d="m204 368 3.875.313 2.18.175C212 369 212 369 214 372c-3.558-.61-6.683-1.578-10-3v-1Z"/><path fill="#5762B7" d="M172 355c4.245-.333 6.355-.439 9.938 2l2.062 2c-4.195-.6-8.01-1.575-12-3v-1Z"/><path fill="#6D9675" d="M393 283c4 4.625 4 4.625 4 8l-3-1-1-7Z"/><path fill="#887DAD" d="M185 117c.75 1.625.75 1.625 1 4-1.938 3.25-1.938 3.25-4 6-1-3-1-3-.223-4.824L185 117Z"/><path fill="#5E4DCF" d="M231 111c6.152.586 6.152.586 8 1l1 2-5-1v2l-3-1-1-3Z"/><path fill="#688C82" d="M341 290c1.875.313 1.875.313 4 1l2 3-1 3c-5-5.875-5-5.875-5-7Z"/><path fill="#7B5CDC" d="M187 125h1c.201 3.625-.142 5.865-2 9h-2c.557-3.344 1.352-6.033 3-9Z"/><path fill="#7D57ED" d="M222 109c4.875 4.75 4.875 4.75 6 7-2.886-.398-3.822-.79-5.75-3.063L221 111l1-2Z"/></svg>